<svg version="1.0" xmlns="http://www.w3.org/2000/svg" width="346.667" height="346.667" viewBox="0 0 260 260"><path d="M92.6 41.7c-.3.8-1 1.2-1.5.9-1.1-.7-4.3 2.9-3.4 3.9.5.4-.2.5-1.4.2-1.9-.4-2.1-.2-1.3 1.3s.5 1.7-2 1.5c-2.1-.2-2.7.1-2.3 1.2.3.7.2 1.3-.3 1.2-.5-.1-1.6-.1-2.4 0-1.3.1-1.3.2 0 1.1.8.5 1.2 1 .8 1.1-2.5.5-3.4.4-4-.6-.4-.5-.6 0-.5 1.3.1 1.6.6 2.1 1.7 1.7 1.2-.5 1.2-.4.3.6-1 1-1.6.9-2.9-.2-1.2-.9-1.5-1-1-.2.7 1.2-1.2 1.9-3.8 1.4-.5-.1-.2.8.6 2.1 1.6 2.4 1.4 4.8-.4 4.8-.7 0-.6-.5.1-1.4 1-1.2.8-1.7-1.1-2.7-2.1-1.1-2.2-1.1-.9.5 1.2 1.4 1.2 1.6-.1 1.1-.8-.3-2.4.2-3.4 1.2-1.1 1-1.5 1.4-.8 1 .7-.5 1.5-.3 2 .4.4.7.3.9-.4.5-.6-.3-1.4-.2-1.7.4-.5.8-1.2.7-2.3-.2-1.4-1.1-1.5-1-.9.6.6 1.4.4 1.7-.8 1.2-1.4-.5-2.1 1.7-1.6 4.7.1.5-.3.6-.8.2-.6-.3-.8-1.2-.4-2 .4-1.1.1-1.3-1.1-.9-.8.3-1.4 1.1-1.3 1.7.1.6-.8 1.3-2 1.5-1.3.2-2.3.8-2.3 1.3 0 .6.6.7 1.3.3 1-.6 1-.4 0 .7-1.6 1.6-1.7 3.3-.1 2.3.7-.4.8-.3.4.5-1 1.5-2.9.3-2.2-1.5.3-.7 0-1.6-.6-2-.7-.4-.8-.3-.4.4s.2 1.2-.4 1.2c-.6 0-.8.5-.4 1.2.5.8.2.9-1 .5-1.1-.4-1.5-.3-1.1.4.4.6-.1.9-1.1.7-1.2-.2-1.8.2-1.6 1.1.2.8-.3 1.1-1.2.8-1.1-.4-1.3-.1-.9 1 .5 1.2.2 1.5-1.1 1-1.1-.4-1.9-.1-2.3.9-.5 1.3-.8 1.3-1.5.2-.6-.9-.7-.5-.3 1.1.5 1.7.4 2.2-.5 1.6-.8-.5-1.1-.4-.6.3.3.6-.2 1.5-1.1 2.1-1 .6-1.4 1.1-.9 1.1.6 0 1.9-.9 3.1-2 2.1-1.9 2.1-1.9 2.2.3.1 1.2-.1 1.7-.5 1-.5-.8-1.4-.5-3.1.9-2.1 1.6-2.2 2.1-1 2.9 1.2.7 1.2.9-.1.9s-1.3.2 0 .9c.8.6 1.7.8 2 .6.4-.2.7.3.7 1.1 0 1-.4 1.1-1.1.4-.5-.5-1.5-1-2-1-.6 0-.5.4.2.8.7.5 1.5 1.9 1.7 3.2.3 1.3 1.2 2.8 2.1 3.3.9.5 2.3 1.7 3.2 2.8.8 1 1.9 1.6 2.4 1.3.4-.3 1.8.1 3 .8 1.3.7 2.6 1.2 2.9 1.1.3-.1.6.5.6 1.3 0 1.2-.3 1.2-1.6.1-1.9-1.7-5.1-3.4-3.6-2 2.3 2.1 10.4 8.3 10.9 8.3.3 0 .6-.5.6-1.1 0-.5-.5-.7-1.2-.3-.7.5-.8.3-.3-.6.6-.9.4-1.1-.5-.5-.9.5-1.1.4-.6-.4.4-.6 1.2-.8 1.8-.5.7.5.9.1.5-.9-.3-1-.2-1.7.4-1.7.6 0 .9.8.8 1.7-.3 3.7.1 5.4 1.3 4.7.7-.5.9-.2.5.8-.4 1.2 0 1.5 1.6 1.1 1.8-.4 1.9-.3.7.6-1.3.9-1.2 1.1.3 1.1 1 0 1.5.5 1.2 1-.4.6-.3 1 .2.9 2.3-.4 5.3.2 5.3 1.1 0 .5-.8.6-1.7.3-1.5-.6-1.6-.5-.3.9.8.8 2.1 1.3 2.9 1 1-.4 1.2-.1.7.9-.4.8-.1.6.8-.4.8-1.1 1.2-2.6.9-3.5-.4-1.4-.3-1.5.5-.3.7 1 .7 2.1.1 3.4-1.3 2.3 1.4 5.9 3.7 5 1-.4 1.3 0 .8 1.3-.3 1.2 0 1 .9-.5 1.1-1.8 1.5-2 2-.8.3.8 0 2-.6 2.6-.8.8-.8 1.1.1 1.1.6 0 .9.7.5 1.7-.5 1.2-.3 1.4.8.8 1.1-.7 1.1-.5-.1 1-1.4 1.7-1.3 1.8.3 1.2 1.1-.4 1.6-.3 1.2.3-.3.6-.1 1 .4 1 .6 0 1.1-.5 1.1-1 0-.6.6-.5 1.4.2.8.7 1 1.5.6 1.8-.5.3-.2 1.6.6 3 1.3 2.2 1.4 2.2.9.3-.5-1.7-.2-2.2 1.4-2 1.4.1 1.7.5 1.1 1.1-1.5 1.5-1.2 3 .4 1.7 1-.9 1.5-.8 1.9.4.4.8 1.2 1.2 1.9 1 .7-.3 1.8.5 2.3 1.7.6 1.3 1.6 2.2 2.3 2.1.7-.2 1.2.2 1.2.8 0 .5.6.7 1.3.3.6-.4.9-.3.4.1-1 1.2-4.7 1.4-5.3.3-.7-1-2.4-.1-2.4 1.3 0 .6.4.8.9.4.5-.3 1.3 0 1.7.6.4.8.9.7 1.6-.2.8-1.1 1.1-1.1 1.5-.1.4 1 .8 1 2.1 0 1.5-1.3 7.2-1.9 7.2-.8 0 .3.9.6 2 .7 1.3.1 1.8-.2 1.3-1-.4-.7 0-.6 1 .2 1.3 1 2 1.1 3.1.2 1.1-.9 1.5-.8 2 .4.6 1.7 2.6 1.2 2.6-.6 0-.6-.5-.7-1.2-.3-.7.5-.8.3-.3-.6.6-1 1.1-1 2 .3 1.3 1.7 3.1 2.4 2.1.8-.3-.5.1-1.1.9-1.4 1-.4 1.2-.1.8 1-.5 1.3-.1 1.2 2.3-.3 1.7-1.2 2.5-1.4 2-.5-.6.9-.5 1.2.5.9.8-.3 1.3-.9 1.2-1.4-.1-.5 1-1 2.3-1 1.3-.1 2.4.2 2.4.7 0 .5-.3.8-.7.8-2-.3-3.6.2-2.9.8 1.4 1.4 3.1.9 4.3-1.2.9-1.5.9-2.2 0-2.8-.8-.6-.7-.7.3-.4.8.2 2.4-.3 3.5-1.2 1.2-.9 1.5-1 .8-.1-2.2 2.4-1.4 3.4.9 1.4 1.9-1.5 2-1.6.9-.2-1.3 1.7-.2 2.6 1.3 1.1 1-1 4.6-1.1 4.6-.1 0 .5.5.6 1.1.3.6-.4 1.9.2 3 1.4s1.5 2.1.9 2.1-.8.5-.5 1c.4.6 1.2.8 1.8.4.7-.3.2.3-1 1.4-1.2 1.1-1.9 2.3-1.5 2.7.4.5.2.5-.5.2-.6-.4-1.4-.1-1.6.5-.4.9-.6 1-.6.1-.1-.6.4-1.5.9-1.8.6-.3 1-1.1 1-1.7 0-.6-1.2-.1-2.7 1.3-1.4 1.3-2.3 1.8-1.9 1.1 1-1.7-.5-1.5-3.4.5-2.4 1.6-2.4 1.6-1.1 0 1.2-1.6 1.2-2-.3-3.5-1.7-1.6-1.8-1.6-1.2.4.5 1.5.2 2.4-.9 2.8-.9.3-1.3.2-1-.4.3-.6.1-1-.4-1-.6 0-1.1.6-1.1 1.2 0 .8-.3.9-.8.3-.4-.6-1.4-1-2.2-1-.8 0-1.5-.5-1.5-1.2 0-.6-.3-1.5-.7-1.9-.5-.4-.8-.2-.8.4 0 .7-.8 1.2-1.7 1.2-1.4 0-1.5-.2-.5-.9 1.1-.7 1.1-.9-.1-1.4-.9-.3-1.8.1-2.1 1-.5 1.1-1 1.2-1.9.4-1-.8-1.7-.7-2.5.1-.9.9-1.2.9-1.2-.2 0-1.7-1.3-.5-1.6 1.6-.1.8.3 1.4.9 1.3 3.5-.4 4 .1 2.2 2.1-1.4 1.6-1.5 2.3-.5 3.4 1 1.3.8 1.5-.9 1.1-2.3-.4-2.6.2-1.1 2.5.6 1 1 1.1 1 .2 0-.6.5-1.2 1.2-1.2.9 0 .9.3 0 1.2-2.1 2.1-1.3 2.9 1.3 1.2 2.3-1.5 2.5-1.5 3.1 0 .3.9 1.1 1.3 1.8.9.6-.4.5.1-.3 1-.8 1-.9 1.7-.3 1.7.6 0 1.6-.8 2.1-1.7.6-1.1 1.1-1.3 1.1-.5s.5 1 1.3.6c.6-.4.3.2-.7 1.4-2.3 2.6-1.1 2.9 1.8.5 2-1.7 2-1.7.7 0-1.3 1.6-.2 2.5 1.3 1 1.2-1.2 7.6-1.2 7.6-.1 0 .6.3.8.6.5.4-.3 1.6-.2 2.7.4 1.2.7 1.7.7 1.3.1-.3-.5.1-1.3 1-1.6 1-.4 1.3-.2.8.7-.6.8-.3.8.8-.1 1.9-1.5 6.9-1.9 8.8-.7.8.5 1.1.4.6-.3-.3-.6.1-.9 1-.8.8.1 2 .9 2.5 1.7.8 1.3 1.3.6 1-1.3 0-.4.6-.5 1.4-.2.8.4 1.2 1.1.8 1.8-.4.6.1.5 1-.3 1.4-1.1 1.7-1.1 1.7 0s.2 1.1 1-.1c.6-1 1-1.1 1-.3s1.1 1.1 3 .9c1.6-.2 3.2-.1 3.5.2.2.3 3.2.5 6.5.5 3.4 0 6.3.4 6.6.9.3.4 1.3.4 2.3-.1 1-.6 2.3-.6 3.2 0 1.9 1.2 3.2 1.1 2.3-.2-.3-.6.5-.3 2 .6 1.8 1.2 2.6 1.4 2.6.5 0-.9.4-.9 1.7.1 1.5 1.2 1.6 1.2.8-.1-.6-1.2-.5-1.3.6-.3.7.7 1.7 1.3 2.2 1.3.4 0 .5-.6.1-1.3-.4-.6.3-.3 1.6.8s2.1 1.5 1.7.9c-.4-.7.5-1.1 2.3-1.1 1.7 0 3 .5 3 1s.8.3 1.7-.4c1.5-1.2 1.6-1.2.8.1-.7 1.2-.6 1.3.7.3.8-.7 1.8-1 2.1-.6.4.3.7.1.7-.5 0-.7.3-1.1.8-1 1.4.4 5.2-2.3 5.2-3.7 0-.8.5-1.5 1-1.5 1.4 0 1.3-8.6-.1-11.2-.8-1.5-.8-1.9 0-1.4.6.4 1.1 0 1.1-.9s-.4-1.4-.9-1.1c-1.1.7-1.9-1.2-1.6-4.1.1-1.3-.3-2.3-.8-2.3s-.7-.7-.3-1.5c.3-.8.1-1.5-.4-1.5s-.7-.7-.4-1.5c.4-.8.2-1.5-.3-1.5-.8 0-1.2-2-1.4-7.3 0-1.2-.5-1.7-1.5-1.3-1 .4-1.3.2-.7-.7 1.1-1.8 1.2-3.7.2-3.7-.6 0-.8-.4-.4-.9.3-.5.1-1.3-.5-1.6-.8-.5-.7-1.2.2-2.3 1-1.2 1-1.4.1-.8-.9.5-1.3 0-1.4-1.3-.2-2.9-.3-3.4-1.1-4.7-.4-.6-.9-2.9-1-5.2-.2-2.2-.6-3.8-.9-3.6-.4.2-1-.3-1.3-1.2-.3-.8-.2-1.2.4-.9.6.3 1 .1 1-.4 0-.6-.4-1.1-1-1.1-.5 0-.9-.3-.8-.8.3-1.5-1.5-8.2-2.4-8.8-.5-.3-.4-1.1.3-2 .9-1.1.8-1.5-.5-2-1.2-.5-1.3-1-.5-2.5.5-1.1.6-1.9.2-1.8-2 .3-2.5-.2-1.4-1.5.9-1 .8-1.6-.4-2.6-.8-.7-1.2-1.6-.9-2.1.3-.5 0-1.8-.6-2.9-.8-1.4-.8-2 0-2 .6 0 .4-.7-.4-1.6-1.8-1.7-2.1-2.8-.6-1.9.6.3.1-1-1.1-2.9-1.2-2-2.6-3.9-3.3-4.3-.6-.4-.5.2.3 1.3.8 1 .2.7-1.3-.9-1.5-1.5-3.1-2.5-3.7-2.2-.5.4-.9.1-.9-.5 0-.7-.7-1-1.5-.6-.8.3-1.5.2-1.5-.2s-1.1-.7-2.5-.7-2.5.3-2.5.7c0 .5-.3.7-.7.6-1.8-.4-8.3 1.5-8.3 2.4 0 .6-.6.5-1.5-.2-1.2-1-1.5-1-1.5 0 0 .7-.8 1-2 .7-1.1-.3-1.8-.1-1.4.4.3.5-.2 1-1 1-2.9.3-3.4.4-4.1 1.1-.4.4-1.4.4-2.3.1-.9-.4-1.3-.2-.9.4.4.6-.6.9-2.3.8-1.7-.1-2.7.2-2.3.8.4.6-.2.8-1.5.5-1.2-.4-2.2-.2-2.2.4 0 .5-.6.8-1.2.6-.7-.3-2.1.5-3.1 1.6-1 1.2-1.6 1.6-1.3.9.8-1.5-3.1-1.2-6.3.6-1.7.9-2.1 1-1.6.1.4-.7-.3-.5-1.7.4-1.3.8-4.2 1.6-6.3 1.7-5.6.2-6.5 0-6.5-1.2 0-.5.6-.7 1.3-.3.6.4 0-.6-1.6-2.3-1.5-1.6-2.4-3.2-2-3.6.6-.6-1.1-1.1-2.9-.8-1.3.2-.9-1.7.5-2.3.6-.4.2-.4-1.1-.2-1.2.2-1.9 0-1.6-.5.3-.5-.2-1.2-1.1-1.5-1.4-.6-1.4-.8.2-1.9 1.7-1.3 1.7-1.4.1-2-1-.4-1.5-1.1-1.2-1.6.3-.5-.2-.6-1-.3-1.1.4-1.6 0-1.6-1.5 0-1.2.1-2.3.3-2.4.5-.8-2.6-3.6-3.4-3.1-.5.3-.9-.2-.9-1.1 0-1 .5-1.3 1.2-.9s.8.3.4-.5c-.4-.6-1-.9-1.4-.7-.9.5-3.2-2-2.5-2.8.6-.6-1.2-1-2.9-.7-.5 0-.8-.4-.8-.9 0-.6.5-1 1-1 .6 0 1-.5 1-1.1 0-.5-.4-.8-.9-.4-.5.3-1.7-.3-2.7-1.2-2.5-2.5-7.5-2.6-9.2-.2-.7 1.1-1.7 1.7-2.2 1.4-.4-.3-1.1 0-1.3.5-.3.6-.4.5-.2-.2.1-.7.7-1.2 1.3-1.1.5.1 1.2-.3 1.5-1.1.3-.7-.1-1.3-.9-1.3-.7 0-1.6.7-1.8 1.4zm10.7 1c-.3.8 0 1.3.7 1.1.7-.2 1.4.3 1.6 1 .1.7 0 .8-.3.2-.2-.5-.9-.8-1.4-.4-.5.3-1.2-.2-1.5-1-.9-2.3-2.6-.8-1.9 1.7.5 2 .5 2-.5.4-.8-1.3-.8-2.2-.1-3.1 1.4-1.7 4-1.6 3.4.1zm-12.6 1.6c0 .8-.6 1.4-1.4 1.4-.9 0-1-.4-.2-1.4.6-.7 1.2-1.3 1.4-1.3.1 0 .2.6.2 1.3zm2.8 2.3c-1.6 1.2-1.7 1.6-.6 2.4.8.4 1.5 2 1.5 3.3.1 1.4-.2 2.3-.7 2-.4-.3-.7-1.2-.5-2.1.2-1-.3-2.3-1.2-3-1.3-1.1-1.3-1.4.4-2.7 1.1-.8 2.2-1.5 2.5-1.5.3 0-.3.7-1.4 1.6zm3.5 3.9c0 .5-.5.3-1-.5s-1-2-1-2.5c0-.6.5-.3 1 .5s1 1.9 1 2.5zm3-2.5c.8.5 1.1 1 .5 1-.5 0-1.7-.5-2.5-1s-1-1-.5-1c.6 0 1.7.5 2.5 1zm-10.5 1.8c-.3.3-1.1 0-1.8-.7-.9-1-.8-1.1.6-.5 1 .3 1.5.9 1.2 1.2zm16.8.5c-.3.5-1.4.6-2.5.4-1.4-.4-1.8-.2-1.4.9.3.8.1 1.4-.4 1.4-1 0-1.4-2.3-.6-3.1.8-.8 5.4-.4 4.9.4zM99 51.5c0 .8-.4 1.5-1 1.5-.5 0-.7-.7-.4-1.5.4-.8.8-1.5 1-1.5.2 0 .4.7.4 1.5zm12.4.1c.3.8.2 1.2-.4.9-.6-.3-1-1-1-1.6 0-1.4.7-1.1 1.4.7zM87 51.4c0 .3-.4.8-1 1.1-.5.3-1 .1-1-.4 0-.6.5-1.1 1-1.1.6 0 1 .2 1 .4zm4.5.6c.3.6-.1.7-.9.4-1.8-.7-2.1-1.4-.7-1.4.6 0 1.3.4 1.6 1zm17.5-.6c0 .3-.4.8-1 1.1-.5.3-1 .1-1-.4 0-.6.5-1.1 1-1.1.6 0 1 .2 1 .4zM89 54c0 .5-.4 1-1 1-.5 0-1-.5-1-1 0-.6.5-1 1-1 .6 0 1 .4 1 1zm-6.3 2c-.4 1.7-.1 2 1.6 1.8 1.5-.2 2.2.3 2.4 1.7.2 1.5.1 1.6-.5.5-.4-.8-1.5-1.5-2.4-1.5-1 0-1.8-.3-1.8-.8v-2.2c0-.8.3-1.5.6-1.5.4 0 .4.9.1 2zm9.5-.6c.7-.4.8-.2.4.4-1.1 1.8-2.6 1.4-2.5-.6 0-1 .3-1.2.6-.4.2.6 1 .9 1.5.6zm9.5-.8c-.3.3-1.2.4-1.9.1-.8-.3-.5-.6.6-.6 1.1-.1 1.7.2 1.3.5zm3.3.4c0 .5-.5 1-1.1 1-.5 0-.7-.5-.4-1 .3-.6.8-1 1.1-1 .2 0 .4.4.4 1zm8 1.1c0 .5-.4.9-.8.9-.5 0-.9-.7-.9-1.5s.4-1.2.9-.9c.4.3.8.9.8 1.5zm-3-.7c0 .2-.7.7-1.6 1-.8.3-1.2.2-.9-.4.6-1 2.5-1.4 2.5-.6zm-21.2 3.1c-.3.3-.9-.2-1.2-1.2-.6-1.4-.5-1.5.5-.6.7.7 1 1.5.7 1.8zm8.2-2.1c0 .3-.4.8-1 1.1-.5.3-1 .1-1-.4 0-.6.5-1.1 1-1.1.6 0 1 .2 1 .4zm2.9.9c-.9.7-1.5 2-1.3 2.9.1 1-.3 2.1-.8 2.5-.7.3-.8.1-.4-.5.4-.7.1-1.2-.6-1.2-.9 0-.9-.3.2-1 .8-.5 1.1-1 .5-1-.5 0-.1-.7.9-1.5 1.1-.8 2.2-1.5 2.5-1.5.3 0-.1.6-1 1.3zm-19.9.1c0 .2-.7.7-1.6 1-.8.3-1.2.2-.9-.4.6-1 2.5-1.4 2.5-.6zm23.2.3c-.6.2-.9 1-.6 1.5.4.7.2.8-.5.4-1.3-.9-.5-2.6 1.2-2.5.9 0 .8.2-.1.6zm8.3 1.9c.8 1 1.4 2.3 1.5 2.9 0 .5-.8-.1-1.8-1.5-.9-1.5-2.4-2.4-3.4-2.2-.9.2-1.8-.1-2.1-.5-1.1-1.8 4.4-.5 5.8 1.3zm2.8-1.1c-.3.9-.8 1.4-1 1.1-.3-.3-.2-.9.2-1.5.9-1.6 1.5-1.3.8.4zM76 60c.8.5 1.1 1 .5 1-.5 0-1.7-.5-2.5-1s-1-1-.5-1c.6 0 1.7.5 2.5 1zm5 0c0 .5-.2 1-.4 1-.3 0-.8-.5-1.1-1-.3-.6-.1-1 .4-1 .6 0 1.1.4 1.1 1zm14 .1c0 .3-1.1.6-2.5.6s-2.5-.3-2.5-.6c0-.4 1.1-.7 2.5-.7s2.5.3 2.5.7zm-19.6 3.4c1.4 2.1 1.4 2.4.1 1.9-.8-.4-1.5-1.3-1.5-2.1s-.5-1.1-1.2-.7c-.7.4-.8.3-.4-.4 1-1.6 1.1-1.6 3 1.3zm4.2-1.3c.4.7.3.8-.4.4s-1.2-.2-1.2.5-.3 1-.6.6c-.6-.5.3-2.7 1.1-2.7.2 0 .7.5 1.1 1.2zM85 62c0 .5-.7.7-1.5.4-.8-.4-1.5-.8-1.5-1 0-.2.7-.4 1.5-.4s1.5.4 1.5 1zm21-.6c0 .2-.7.6-1.5 1-.8.3-1.5.1-1.5-.4 0-.6.7-1 1.5-1s1.5.2 1.5.4zm4.6 1.5c.1.6 0 .7-.3.1-.2-.5-.9-.8-1.3-.5-.5.3-1.1.1-1.4-.4-.4-.5.2-.8 1.1-.7.9.2 1.8.8 1.9 1.5zm-24.5 1.8c-1.2 2-1.4 1.4-.5-1.2.4-.9.9-1.4 1.1-1.1.3.2 0 1.3-.6 2.3zm9.1-.1c-.5 1-1.7 1.9-2.6 2-.9.1-1.4-.2-1-.7.3-.5.9-.7 1.4-.4.5.3 1.2-.4 1.5-1.6.4-1.1.9-1.8 1.2-1.6.3.3 0 1.3-.5 2.3zm7.2-1.1c.3.8.1 1.5-.4 1.5-.6 0-1-.7-1-1.5s.2-1.5.4-1.5.6.7 1 1.5zm-18.9.5c.3.6-.1.7-.9.4-1.8-.7-2.1-1.4-.7-1.4.6 0 1.3.4 1.6 1zm8 0c-.3.5-1.1 1-1.6 1-.6 0-.7-.5-.4-1 .3-.6 1.1-1 1.6-1 .6 0 .7.4.4 1zm15.5.5c0 .8-.2 1.5-.4 1.5s-.6-.7-1-1.5c-.3-.8-.1-1.5.4-1.5.6 0 1 .7 1 1.5zm10-.5c.8.5 1.1 1 .5 1-.5 0-1.7-.5-2.5-1s-1-1-.5-1c.6 0 1.7.5 2.5 1zm-18 1.5c.5-.3 1.1-.1 1.4.4.4.5-.2.8-1.1.7-.9-.2-1.8-.8-1.9-1.5-.1-.6 0-.7.3-.1.2.5.9.8 1.3.5zm-26 .4c0 .6-.4 1.2-.8 1.5-.5.3-.9-.1-.9-.9s.4-1.5.9-1.5c.4 0 .8.4.8.9zm17 .7c0 .2-.7.4-1.5.4s-1.5-.4-1.5-1c0-.5.7-.7 1.5-.4.8.4 1.5.8 1.5 1zm15-.6c0 .5-.8 1-1.7 1-1.5 0-1.6-.2-.3-1 1.9-1.2 2-1.2 2 0zm5.5 0c-.3.5 0 1 .7 1.1 1 0 1 .2 0 .6-.6.2-1 .9-.6 1.4.3.5-.2 1.2-1 1.5-.9.3-1.3 1-1 1.5.3.5-.1 1.2-.9 1.5-.8.3-1.3 1.3-1 2.4.3 1 .1 2-.4 2.3-.5.3-.8-.6-.7-2 0-1.3.7-2.9 1.5-3.4s1-.9.4-.9c-.5 0-.3-.6.5-1.3.9-.7 1.5-1.9 1.5-2.7-.1-1.7.4-3 1.1-3 .3 0 .2.4-.1 1zm-26 .9c.3.5.2 1.2-.3 1.5-.5.3-.9-.1-.9-.9 0-1.7.3-1.9 1.2-.6zm-21 1.1c-.3.5-1.2 1-1.8 1-.7 0-.6-.4.3-1 1.9-1.2 2.3-1.2 1.5 0zm3.5 0c0 .5-.4 1-1 1-.5 0-1-.5-1-1 0-.6.5-1 1-1 .6 0 1 .4 1 1zm10.9 0c-.6.5-1.8.6-2.6.3-1.9-.8-1.6-1.1 1.3-1.1 1.7 0 2.2.3 1.3.8zm19.7.4c.3.8 1.4 1.3 2.5 1.1 1-.2 2.2.1 2.5.7.4.6.3.8-.3.5-.6-.4-1.3 0-1.7.8-.3.8-1.1 1.5-1.8 1.4-1 0-1-.2 0-.6.6-.2 1.2-.9 1.2-1.4 0-.6-.4-.8-.9-.4-.6.3-1.5-.3-2-1.2-1.1-1.7-1.1-1.7-2.2 0-.5.9-1.4 1.5-2 1.2-.5-.4-.9-.2-.9.4 0 .5.6 1.2 1.3 1.4.9.4.9.6-.1.6-.7.1-1.5-.6-1.8-1.4-.4-.8-1.1-1.2-1.7-.8-.6.3-.7.1-.3-.5.3-.6 1.5-.9 2.5-.7 1.1.2 2.2-.3 2.5-1.1.3-.8 1-1.4 1.6-1.4.6 0 1.3.6 1.6 1.4zM115 68c0 .5-.4 1-1 1-.5 0-1-.5-1-1 0-.6.5-1 1-1 .6 0 1 .4 1 1zm-28.5 1c-.3.5-.1 1 .6 1s1 .3.6.6c-.9.9-2.8-.6-2.2-1.7.4-.5.8-.9 1.1-.9.3 0 .2.4-.1 1zm20 1.1c-.4.5-1.2.9-1.8.8-.9 0-.8-.2.1-.6.6-.2.9-1 .6-1.5-.4-.7-.2-.8.5-.4.6.4.9 1.2.6 1.7zm-47.1 2.5c-2 2.9-2.4 3-1.7.4.3-1.1 1-2 1.5-2s.6-.5.2-1.2c-.4-.7-.3-.8.4-.4.9.5.7 1.4-.4 3.2zM73 70c0 .5-.4 1-1 1-.5 0-1-.5-1-1 0-.6.5-1 1-1 .6 0 1 .4 1 1zm7.4 1.9c-.4.3-.9 0-1.1-.7-.3-.6-1-.9-1.5-.6-.7.4-.8.2-.4-.5.6-.9 1.1-.9 2.2 0 .8.6 1.2 1.5.8 1.8zm4.1 0c-.3.5.2 1.2 1.1 1.5.8.3 1.2 1 .9 1.6-.3.5 0 1 .7 1.1 1 0 1 .2 0 .6-.6.2-.9 1-.6 1.5.4.7.2.8-.4.4-.6-.3-.9-1.5-.7-2.5.2-1.1-.3-2.2-1.2-2.5-.9-.4-1.3-.9-1-1.3.4-.3-.1-1.2-1.1-2-1.5-1.3-1.5-1.3.6-.3 1.2.6 2 1.5 1.7 1.9zm-19.7-.7c-.2.6-1 1.3-1.6 1.4-.7.1-.8 0-.2-.3.5-.2.8-.9.4-1.4-.3-.5 0-.9.6-.9.7 0 1 .5.8 1.2zm47.7-.2c-.3.5 0 1 .7 1 .9 0 .9.3-.2 1-.8.5-1.9 1-2.5 1-.5 0-.3-.5.5-1s1.1-1 .7-1c-.9 0 .1-2 .9-2 .3 0 .2.4-.1 1zm-40.9 2.3c.8-.3 1.4-.1 1.4.5 0 1.6-3.5.7-3.6-.9-.1-.8.1-.9.3-.2.2.7 1.1.9 1.9.6zm4.8-1.5c.3.5-.1.9-.9.9s-1.5-.4-1.5-.9c0-.4.4-.8.9-.8.6 0 1.2.4 1.5.8zM89 73c0 .5-.2 1-.4 1-.3 0-.8-.5-1.1-1-.3-.6-.1-1 .4-1 .6 0 1.1.4 1.1 1zm16-.6c0 .3-.4.8-1 1.1-.5.3-1 .1-1-.4 0-.6.5-1.1 1-1.1.6 0 1 .2 1 .4zm14.2 1c.7-.4.8-.2.4.5-.9 1.3-2.6.5-2.5-1.2 0-.9.2-.8.6.1.2.6 1 .9 1.5.6zm5.6 1.1c-.3.3-.9-.2-1.2-1.2-.6-1.4-.5-1.5.5-.6.7.7 1 1.5.7 1.8zm-70.3.9c-.1 2.3-3.5 6.8-3.5 4.6 0-.6.7-1.3 1.5-1.6.8-.4 1.2-1 .9-1.6-.5-.8.1-3.8.9-3.8.1 0 .2 1.1.2 2.4zm6.3.2c0 1.7-.3 2.2-.8 1.3-.5-.6-.6-1.8-.3-2.6.8-1.9 1.1-1.6 1.1 1.3zm7.1 1.6c-1.1 2.1-1.5 2.2-2.5.6-.4-.7-.3-.8.4-.4 1.2.7 1.6-.4 1.3-3.4-.2-1.3 0-1.3.8-.1.6 1 .6 2.1 0 3.3zm14.7-1.9c.1.9-.2 1.5-.7 1.1-.5-.3-.7-.9-.4-1.4.3-.5-.4-.8-1.5-.7-1.4.1-2 .7-1.8 2.1.2 1.4-.3 2.1-1.7 2.3-1.6.1-1.6.1-.2-.3.9-.3 1.5-1 1.1-1.5-1-1.8.4-3.6 2.7-3.5 1.3.1 2.3.8 2.5 1.9zM97 74c0 .5-.4 1-1 1-.5 0-1-.5-1-1 0-.6.5-1 1-1 .6 0 1 .4 1 1zm19.3.3c.3.8.2 2-.3 2.6-.5.9-.7.4-.7-1.3 0-2.9.2-3.2 1-1.3zm6.4 1.8c-.3 1.2.2 1.9 1.7 2.3 1.8.4 1.7.4-.3.3-1.9-.2-2.5-.8-2.5-2.9-.1-1.4.2-2.4.7-2.1.5.3.7 1.4.4 2.4zM75 75.5c0 .8-.4 1.5-1 1.5-.5 0-.7-.7-.4-1.5.4-.8.8-1.5 1-1.5.2 0 .4.7.4 1.5zm52.8-.2c.8 1 .6 1.3-1.1 1.4-1.2 0-1.6-.1-.9-.4.6-.3 1-.9.6-1.4-.8-1.4.2-1.1 1.4.4zm-71 2.2c-.3.3-.9-.2-1.2-1.2-.6-1.4-.5-1.5.5-.6.7.7 1 1.5.7 1.8zm8.5-1.8c-.7.2-1.9.2-2.5 0-.7-.3-.2-.5 1.2-.5s1.9.2 1.3.5zm28.7.4c0 .3-1.1.6-2.5.6s-2.5-.3-2.5-.6c0-.4 1.1-.7 2.5-.7s2.5.3 2.5.7zm9-.2c0 .4-1.1.7-2.5.7s-2.5-.3-2.5-.7c0-.3 1.1-.7 2.5-.7s2.5.4 2.5.7zm7.4.6c-.4.8-.8 1.5-1 1.5-.2 0-.4-.7-.4-1.5s.4-1.5 1-1.5c.5 0 .7.7.4 1.5zm-39.9.5c-.3.6.4 1 1.7 1.1 1.3 0 1.7.3 1 .6-1.8.7-4.4-.5-3.7-1.7.3-.5.8-1 1.1-1 .3 0 .2.4-.1 1zm9.6 2.3c-1 .9-1.1.8-.5-.6.3-1 .9-1.5 1.2-1.2.3.3 0 1.1-.7 1.8zM97 78c0 .5-.4 1-1 1-.5 0-1-.5-1-1 0-.6.5-1 1-1 .6 0 1 .4 1 1zm24 1.6c0 .2-.9 0-2-.6s-2-1.3-2-1.6c0-.2.9 0 2 .6s2 1.3 2 1.6zm-38.3 1.6c-.3.7-.5.2-.5-1.2s.2-1.9.5-1.3c.2.7.2 1.9 0 2.5zm6 0c-.3.7-.5.2-.5-1.2s.2-1.9.5-1.3c.2.7.2 1.9 0 2.5zm16.8.9c.6-.1 1 .5 1 1.2 0 .6.5 1.9 1 2.7.7 1.3.6 1.3-.7.2-.9-.8-1.4-2-1.1-2.7.3-1-.1-1.3-1.6-1-1.1.2-2.4-.1-2.7-.7-.4-.7-.2-.8.4-.4.8.5 1.2-.1 1.3-1.6l.1-2.3.6 2.3c.4 1.3 1.2 2.3 1.7 2.3zM48 79.4c0 .3-.4.8-1 1.1-.5.3-1 .1-1-.4 0-.6.5-1.1 1-1.1.6 0 1 .2 1 .4zm7.5.6c-.3.5-1.2 1-1.8 1-.7 0-.6-.4.3-1 1.9-1.2 2.3-1.2 1.5 0zm7.2-.3c-.9.8-5.7 1.3-5.7.6 0-.5 1.4-.9 3.1-.9 1.6-.1 2.8 0 2.6.3zm3.8 1.1c-.3.3-1.1 0-1.8-.7-.9-1-.8-1.1.6-.5 1 .3 1.5.9 1.2 1.2zm27.5-.9c0 .5-.7 1.1-1.4 1.4-1 .4-1.3.1-.9-.9.6-1.5 2.3-1.9 2.3-.5zm6 .1c0 .5-.4 1-1 1-.5 0-1-.5-1-1 0-.6.5-1 1-1 .6 0 1 .4 1 1zm11 1.5c1.4-.9 2.3 1.6 1.1 2.8-.9.9-1.1.8-.5-.6.4-1.2.2-1.7-.7-1.5-.7.2-1.4-.4-1.4-1.2-.1-.8 0-.9.2-.2.3.7.8 1 1.3.7zm4-1.5c0 .5-.4 1-1 1-.5 0-1-.5-1-1 0-.6.5-1 1-1 .6 0 1 .4 1 1zm3.5.8c-.3.3-1.1 0-1.8-.7-.9-1-.8-1.1.6-.5 1 .3 1.5.9 1.2 1.2zM45 82c0 .5-.4 1-1 1-.5 0-1-.5-1-1 0-.6.5-1 1-1 .6 0 1 .4 1 1zm5.6.2c.4.7.3.8-.4.4s-1.2-.5-1.2-.2c0 .2-.3 1.2-.6 2.1-.4 1-.2 1.5.7 1.3.9-.2 1.4.5 1.3 2 0 1.5.4 2.1 1.3 1.8.7-.3 1.3-.1 1.3.5s-.8.9-1.7.7c-1.2-.2-1.7-1.1-1.5-2.7.2-1.4 0-2.1-.7-1.7-.5.4-1.5-.3-2.1-1.5-.7-1.2-.8-1.9-.2-1.5.5.3 1.2-.1 1.6-.9.7-1.8 1.2-1.9 2.2-.3zm13.9.8c-.3.5.1 1.1.7 1.3 1 .4 1 .6 0 .6-.7.1-1.5-.6-1.8-1.4-.4-.8-1.1-1.2-1.7-.8-.6.3-.7.1-.3-.5.4-.6 1.3-.9 2.1-.6.8.4 1.3 1 1 1.4zm12.8-1.3c-.7.2-1.9.2-2.5 0-.7-.3-.2-.5 1.2-.5s1.9.2 1.3.5zm3.7.3c0 .5-.2 1-.4 1-.3 0-.8-.5-1.1-1-.3-.6-.1-1 .4-1 .6 0 1.1.4 1.1 1zm16 0c0 .5-.4 1-1 1-.5 0-1-.5-1-1 0-.6.5-1 1-1 .6 0 1 .4 1 1zm-44.2 2.6c0 1.7-.3 2.2-.8 1.3-.5-.6-.6-1.8-.3-2.6.8-1.9 1.1-1.6 1.1 1.3zm7.5-1.3c.3.8.2 2-.3 2.6-.5.9-.7.4-.7-1.3 0-2.9.2-3.2 1-1.3zm8 0c.3.8.2 2-.3 2.6-.5.9-.7.4-.7-1.3 0-2.9.2-3.2 1-1.3zm16.4.2c0 .8-.4 1.2-.9.9-.5-.3-.6-1-.3-1.5.9-1.3 1.2-1.1 1.2.6zm31.7 0c-.4.8-.8 1.5-1 1.5-.2 0-.4-.7-.4-1.5s.4-1.5 1-1.5c.5 0 .7.7.4 1.5zm-77.9.5c.3.5.1 1-.4 1-.6 0-1.1-.5-1.1-1 0-.6.2-1 .4-1 .3 0 .8.4 1.1 1zm36.5.4c0 2-1.7 2.9-2.6 1.5-.5-.8-.3-.9.6-.4 1 .6 1.2.4.7-.8-.3-1-.2-1.7.3-1.7.6 0 1 .6 1 1.4zm3.4-.1c-.3.8.4 1.3 1.6 1.4 1.2.1 1.8-.2 1.4-.9-.4-.7-.2-.8.5-.4 1.7 1.1.3 2.6-2.2 2.2-2.2-.3-3.8-3.6-1.8-3.6.6 0 .8.6.5 1.3zm14.5-.3c-.6.5-1.8.6-2.6.3-1.9-.8-1.6-1.1 1.3-1.1 1.7 0 2.2.3 1.3.8zm9.8.3c.2.3-.8.4-2.2.4-1.4 0-2.5-.3-2.5-.8 0-.7 3.8-.4 4.7.4zm-62.6 2.4c-1.2 2-1.4 1.4-.5-1.2.4-.9.9-1.4 1.1-1.1.3.2 0 1.3-.6 2.3zM45 85c0 .5-.5 1-1.1 1-.5 0-.7-.5-.4-1 .3-.6.8-1 1.1-1 .2 0 .4.4.4 1zm12.3-.3c-.7.2-1.9.2-2.5 0-.7-.3-.2-.5 1.2-.5s1.9.2 1.3.5zm8.2 3.2c-.3.2-1.2-.2-2.1-1-1.4-1.1-1.6-1-1.2 1.1.2 1.7-.2 2.6-1.4 2.8-1 .2-1.8-.1-1.8-.7s.7-.7 1.7-.4c1.1.4 1.4.3.9-.6-.4-.6-.5-1.9-.2-2.7.5-1.2.9-1.2 2.5-.2 1.1.7 1.8 1.4 1.6 1.7zm4.8-1.4c-.3.9-.8 1.4-1 1.1-.3-.3-.2-.9.2-1.5.9-1.6 1.5-1.3.8.4zm15.5-.1c-1 .7-1.6 1.5-1.3 1.7.2.3-.6.6-1.7.6-1.9.2-1.8 0 .7-1.7 3.4-2.2 4.9-2.6 2.3-.6zm4.8-.2c.4.7.3.8-.4.4s-1.2-.2-1.2.3c0 .6-.5 1.1-1.1 1.1-.8 0-.8-.5.1-1.5 1.5-1.8 1.7-1.8 2.6-.3zM97 86c0 .5-.4 1-1 1-.5 0-1-.5-1-1 0-.6.5-1 1-1 .6 0 1 .4 1 1zm3.7 1.5c0 .8-.5 1.1-1 .8-.5-.3-1.3.1-1.8.8-.6.9-.9 1-.9.2 0-.9 1.9-2.7 3.6-3.3 0 0 .1.7.1 1.5zM43 88c0 .5-.4 1-1 1-.5 0-1-.5-1-1 0-.6.5-1 1-1 .6 0 1 .4 1 1zm4-.2c0 .5-.7.9-1.5.9s-1.2-.4-.9-.9c.3-.4.9-.8 1.5-.8.5 0 .9.4.9.8zm11 .2c0 .5-.2 1-.4 1-.3 0-.8-.5-1.1-1-.3-.6-.1-1 .4-1 .6 0 1.1.4 1.1 1zm17.8.4c-1 .7-1.4 1.7-1 2.1.4.5.1.5-.6.1-1-.6-1-1.1-.1-2.2.6-.8 1.7-1.4 2.3-1.4.6 0 .3.7-.6 1.4zm18.2-1c0 .2-.7.7-1.6 1-.8.3-1.2.2-.9-.4.6-1 2.5-1.4 2.5-.6zM78.5 89c-.3.5-.1 1 .6 1s1 .3.6.6c-.9.9-2.8-.6-2.2-1.7.4-.5.8-.9 1.1-.9.3 0 .2.4-.1 1zm-8 .9c.9 1.5-2.9 3.1-4.6 2-1.2-.8-1.2-1 .1-.8 2.9.3 4.1-.1 3.5-1.1-.3-.6-.4-1-.1-1 .3 0 .7.4 1.1.9zM89 92.4c0 .6-.7.3-1.4-.6-.7-1-1.7-1.4-2.1-1-.5.4-.5.1-.1-.6.6-1 1.1-1 2.2-.1.8.6 1.4 1.7 1.4 2.3zm5.7-.3c.1 2 .1 2.1-.3.3-.4-1.5-1.1-2-2.3-1.7-1 .3-2.1.1-2.4-.4-.3-.5.7-.8 2.1-.7 2.1 0 2.7.6 2.9 2.5zm-50.4-.8c.3.8.2 2-.3 2.6-.5.9-.7.4-.7-1.3 0-2.9.2-3.2 1-1.3zm4.7.8c0 .6-.4.7-1 .4-.5-.3-1-1.1-1-1.6 0-.6.5-.7 1-.4.6.3 1 1.1 1 1.6zm5.7 1.1c-.3.7-.5.2-.5-1.2s.2-1.9.5-1.3c.2.7.2 1.9 0 2.5zm3 0c-.3.7-.5.2-.5-1.2s.2-1.9.5-1.3c.2.7.2 1.9 0 2.5zm26.6-1.9c.3.8.2 2-.3 2.6-.5.9-.7.4-.7-1.3 0-2.9.2-3.2 1-1.3zm-48.8.7c.3.5.1 1-.4 1-.6 0-1.1-.5-1.1-1 0-.6.2-1 .4-1 .3 0 .8.4 1.1 1zm3.5 0c0 .5-.4 1-1 1-.5 0-1-.5-1-1 0-.6.5-1 1-1 .6 0 1 .4 1 1zm28 2.7c0 .1-.5.5-1.2.9-.6.4-.8.3-.5-.3.4-.6 0-1.3-.8-1.7-.8-.3-1.5-1-1.5-1.6 0-.5.9-.2 2 .7 1.1 1 2 1.8 2 2zm5.7-1.5c.2 1.7 0 1.9-.7.8-.5-.8-.6-1.8-.4-2.2.8-1.2 1-1 1.1 1.4zm6.3-.7c0 .1-1.2.2-2.6.2-1.7 0-2.2-.2-1.3-.7 1-.7 3.9-.3 3.9.5zm-32.7 2.4c-.3 1.1-1.1 2.2-1.9 2.5-1.1.4-1.1 0 .2-1.9 2-3 2.4-3.1 1.7-.6zM53 94c0 .5-.7.6-1.7.3-1.2-.5-1.4-.3-.8.7.5.9.4 1.1-.4.6-.6-.4-.9-1.2-.6-1.7.8-1.2 3.5-1.2 3.5.1zm9.4 2.2c.1 1.4-.2 2.4-.7 2.1-.5-.3-.6-1.4-.4-2.5.4-1.4.2-1.8-.9-1.4-.8.3-1.4.1-1.4-.5 0-2.4 3.3-.2 3.4 2.3zm8.5-.9c0 .9-.2.8-.6-.1-.2-.6-1-.9-1.5-.6-.7.4-.8.2-.4-.5.9-1.3 2.6-.5 2.5 1.2zm16.7-1.1c.4.6.3.8-.4.4s-1 .2-.9 1.4c.1 1.4.7 2 2.1 1.8 1.3-.2 2.2.4 2.4 1.4.2 1-.1 1.8-.7 1.8s-.8-.6-.5-1.3c.3-.9-.3-1.3-1.7-1.3-1.4.1-2.3-.6-2.5-1.8-.5-3.1.9-4.6 2.2-2.4zM93 94c0 .5-.8.7-1.7.4-1.5-.5-1.5-.3.1 1 1.1.9 1.5 1.6.9 1.6-1.4 0-3.4-2.5-2.6-3.3 1-1 3.3-.8 3.3.3zm-51.7 2.6c-.7 1.9-1 1.8-1.6-.5-.3-1.3-.1-1.8.9-1.4.7.2 1 1.1.7 1.9zm36.1-1.1c.3.8.1 1.5-.4 1.5-.6 0-1-.7-1-1.5s.2-1.5.4-1.5.6.7 1 1.5zm5.7 1.3c-.6.2-.8.9-.4 1.5.3.7.4 1 0 .7-.3-.3-.5-.8-.4-1.2.1-.4-.7-1.4-1.8-2.3-1.9-1.4-1.8-1.5.9-.3 1.5.7 2.3 1.4 1.7 1.6zm-34.8.7c-.7 2.1-1.2 1.9-1-.4 0-1.1.5-1.8.9-1.5.4.3.5 1.1.1 1.9zm9.2-1.5c.3.5.2 1-.4 1-.5 0-1.3-.5-1.6-1-.3-.6-.2-1 .4-1 .5 0 1.3.4 1.6 1zm7.3 2.5c-.3.3-.9-.2-1.2-1.2-.6-1.4-.5-1.5.5-.6.7.7 1 1.5.7 1.8zm9.4-1.1c.7-.4.8-.2.4.4-.3.6-1.6.9-2.7.7-1.6-.3-1.9.1-1.7 1.8.2 1.5-.3 2.2-1.7 2.4-1.5.2-1.6.1-.5-.5.8-.4 1.5-1.6 1.5-2.7s.6-1.9 1.3-1.8c.6.2 1.2-.3 1.3-1 0-.9.2-.9.6.1.2.6 1 .9 1.5.6zm-38.1 2c-1 1.1-.8 1.7 1 3 2.6 1.8 3.2 1.6 2.3-.8-.3-.9-1.1-1.3-1.7-.9-.6.4-.7.1-.2-.7.6-1 1.1-.9 2.2.5 2.7 3.8.7 5.4-3.1 2.4-2.2-1.7-2.4-2.3-1.4-3.9.7-1.1 1.4-1.7 1.7-1.5.2.3-.2 1.1-.8 1.9zM50.5 98c-.6 1 .6 1.4 3.5 1.1 1.3-.2 1.3 0 .1.8-1.7 1.1-5.5-.5-4.6-2 .4-.5.8-.9 1.1-.9.3 0 .2.4-.1 1zm9.8.3c.3.8.2 2-.3 2.6-.5.9-.7.4-.7-1.3 0-2.9.2-3.2 1-1.3zm20.1.3c.3.8.2 1.2-.4.9-.6-.3-1-1-1-1.6 0-1.4.7-1.1 1.4.7zm-13.4.9c0 .8-.4 1.5-1 1.5-.5 0-.7-.7-.4-1.5.4-.8.8-1.5 1-1.5.2 0 .4.7.4 1.5zm-21.3.2c-.9.8-4.7 1.1-4.7.4 0-.5 1.1-.9 2.5-.9s2.4.2 2.2.5zm32.3.8c0 .1-1.2.2-2.6.2-1.7 0-2.2-.2-1.3-.7 1-.7 3.9-.3 3.9.5zm9 0c0 .1-1.2.2-2.6.2-1.7 0-2.2-.2-1.3-.7 1-.7 3.9-.3 3.9.5zm-38.7 1c-.3.9-.8 1.4-1 1.1-.3-.3-.2-.9.2-1.5.9-1.6 1.5-1.3.8.4zm17.2 1.4c-.6.5-2.5-1-2.5-2 0-.5.6-.4 1.4.3.8.7 1.2 1.5 1.1 1.7zm-15.3.8c-.3 1.6-.7 2.2-1 1.5-.4-1.3.4-4.2 1.1-4.2.2 0 .2 1.2-.1 2.7zm5.6-2c-1 .2-1.5 1-1.1 1.9.3.8.1 1.4-.5 1.4-.8 0-.9-1.6-.3-3.8.1-.1.9-.1 1.9-.1 1.5.1 1.6.2 0 .6zm25.2.3c0 .5-.4 1-1 1-.5 0-1-.5-1-1 0-.6.5-1 1-1 .6 0 1 .4 1 1zm-8 1c0 .5-.5 1-1.1 1-.5 0-.7-.5-.4-1 .3-.6.8-1 1.1-1 .2 0 .4.4.4 1zm4.3.9c-.4.3-1.1 1-1.5 1.5-.4.4-.6-.1-.5-1.2.1-1.2.6-1.8 1.5-1.5.7.3 1 .9.5 1.2zm7.4.3c-.3.8-.6.5-.6-.6-.1-1.1.2-1.7.5-1.3.3.3.4 1.2.1 1.9zm5.3-1.8c0 .2-.7.6-1.5 1-.8.3-1.5.1-1.5-.4 0-.6.7-1 1.5-1s1.5.2 1.5.4zm-43.4 1.7c.3.6.1 1.6-.5 2.2-.9.9-1 .7-.5-.7.5-1.3.4-1.7-.4-1.2-.7.4-1.2.2-1.2-.3 0-1.4 1.7-1.4 2.6 0zm13.8 0c-.2.4.3 1 1.2 1.3.8.3 1.2 1 .9 1.6-.3.5.2 1.1 1.2 1.1 1.7.1 1.7.2 0 .6-.9.2-1.4.9-1.1 1.5.4.6.2.8-.4.5-.5-.4-.9-1.5-.8-2.5.2-.9-.8-2.5-2.2-3.4-2.4-1.6-2.4-1.7-.5-1.5 1.2 0 2 .4 1.7.8zm4.1.7c-.3.3-1.1 0-1.8-.7-.9-1-.8-1.1.6-.5 1 .3 1.5.9 1.2 1.2zm3.5.5c-.9.7-1.4 1.9-1.2 2.9.2.9-.1 1.8-.5 2.1-.5.3-.8-.6-.7-2 0-1.3.7-2.9 1.5-3.4 2-1.3 2.7-1 .9.4zm-25 .1c0 .2-.7.7-1.6 1-.8.3-1.2.2-.9-.4.6-1 2.5-1.4 2.5-.6zm11 1.2c0 .2-.7.4-1.5.4s-1.5-.4-1.5-1c0-.5.7-.7 1.5-.4.8.4 1.5.8 1.5 1zm4.6.7c.1.9-.2 1.5-.7 1.1-.5-.3-.7-.9-.4-1.4.3-.4 0-1.1-.5-1.3-.6-.3-.5-.4.1-.3.7.1 1.3 1 1.5 1.9zm12.6-1.6c-.6.2-1 .9-.7 1.3.3.5.1 1.1-.4 1.4-.7.5-.8-1.1-.2-3.2.1-.1.7-.2 1.4-.1.9 0 .9.2-.1.6zm9.8 1.4c.4-.8 2-1.5 3.3-1.5 1.4-.1 2.3.2 2 .7-.3.5-1.3.7-2.3.4-1.1-.3-2.1.1-2.4.9-.8 2.1-2.4 1.7-3.6-.9-1.1-2.1-1.1-2.2.5-.2 1.3 1.6 1.7 1.7 2.5.6zm-4 .5c0 .8-1.9 1.3-2.4.6-.3-.5.1-.9.9-.9s1.5.2 1.5.3zm12-.2c0 .3-.4.8-1 1.1-.5.3-1 .1-1-.4 0-.6.5-1.1 1-1.1.6 0 1 .2 1 .4zm-36 2c0 .3-.4.8-1 1.1-.5.3-1 .1-1-.4 0-.6.5-1.1 1-1.1.6 0 1 .2 1 .4zm4 .6c0 .5-.7.7-1.5.4-.8-.4-1.5-.8-1.5-1 0-.2.7-.4 1.5-.4s1.5.4 1.5 1zm17-.6c0 .2-.7.6-1.5 1-.8.3-1.5.1-1.5-.4 0-.6.7-1 1.5-1s1.5.2 1.5.4zm4.7 2.6c-.3 1.2.4 2.2 1.9 3.1 1.3.7 2.2 1.4 2 1.6-.2.3-1.5-.3-2.9-1.2-1.8-1.1-2.3-2.2-1.9-3.7.4-1.6.2-1.9-.8-1.3-.9.5-1.1.4-.6-.4 1.1-1.7 2.9-.2 2.3 1.9zm7.3-2.6c0 .2-.7.6-1.5 1-.8.3-1.5.1-1.5-.4 0-.6.7-1 1.5-1s1.5.2 1.5.4zM50.3 112c.3 1.1.1 1.8-.4 1.4-.5-.3-.9-1.2-.9-2 0-2 .7-1.7 1.3.6zm9.9-.6c.7-.4.8-.2.4.4-1.1 1.8-2.6 1.4-2.5-.6 0-1 .3-1.2.6-.4.2.6 1 .9 1.5.6zm9.4 1.3c-.4.4-1.2.1-1.9-.7-.9-1-.9-1.1.1-.6.7.4 1.2.2 1.3-.6 0-1.1.2-1.1.6 0 .3.7.2 1.6-.1 1.9zm12.8-1.2c.3.8.1 1.5-.4 1.5-.6 0-1-.7-1-1.5s.2-1.5.4-1.5.6.7 1 1.5zm-6.8.7c.5.7.3.8-.6.3-1-.6-1.2-.4-.7.9.4 1 .3 1.5-.3 1.1-1.3-.8-1.3-3.5-.1-3.5.6 0 1.3.5 1.7 1.2zM87 112c0 .5-.2 1-.4 1-.3 0-.8-.5-1.1-1-.3-.6-.1-1 .4-1 .6 0 1.1.4 1.1 1zm-22 1c0 .5-.4 1-1 1-.5 0-1-.5-1-1 0-.6.5-1 1-1 .6 0 1 .4 1 1zm7.4 1.6c.3.8.2 1.2-.4.9-.6-.3-1-1-1-1.6 0-1.4.7-1.1 1.4.7zm12.1-.6c-.3.5-.1 1 .6 1s1 .2.7.5c-.3.3-1.3.2-2.2-.1-1.4-.5-1.5-.9-.4-1.5 1.7-1.1 2-1.1 1.3.1zM63 116c0 .5-.4 1-1 1-.5 0-1-.5-1-1 0-.6.5-1 1-1 .6 0 1 .4 1 1zm7 .1c0 .3-1.1.6-2.5.6s-2.5-.3-2.5-.6c0-.4 1.1-.7 2.5-.7s2.5.3 2.5.7zm9 .4c0 .1-1.2.2-2.6.2-1.7 0-2.2-.2-1.3-.7 1-.7 3.9-.3 3.9.5zm-6.3 2c0 .8-.4 1.2-.9.9-.4-.3-.8-.9-.8-1.5 0-.5.4-.9.8-.9.5 0 .9.7.9 1.5zm-7.9.7c-.2.6-1 1.3-1.6 1.4-.7.1-.8 0-.2-.3.5-.2.8-.9.4-1.4-.3-.5 0-.9.6-.9.7 0 1 .5.8 1.2zm16 0c-.2.6-1 1.3-1.6 1.4-.7.1-.8 0-.2-.3.5-.2.8-.9.4-1.4-.3-.5 0-.9.6-.9.7 0 1 .5.8 1.2zm2.9 1c-.3.8-.6.5-.6-.6-.1-1.1.2-1.7.5-1.3.3.3.4 1.2.1 1.9zm-14.9.8c-.7 1-1.4 1.8-1.5 1.6-.6-.6.9-3.6 1.8-3.6.5 0 .4.9-.3 2zm6 .2c-.5 1.4-3.8 2-3.8.6 0-.6.7-.8 1.5-.4.8.3 1.5.1 1.5-.4 0-.6.3-1 .6-1s.4.5.2 1.2zm.8 2.6c-1.7 1.6-1.8 1.6-.5-.5.7-1.2 1.5-2 1.8-1.7.3.2-.3 1.2-1.3 2.2zm4.6 0c-1.3.4-2.2 1-2 1.3.2.3-.5 1.3-1.4 2.3-1 1-1.8 1.3-1.8.7 0-.5.8-1.5 1.8-2 .9-.6 1.3-1.1.9-1.1-.5 0-.5-.5-.2-1 .3-.6 1.6-1 2.8-.9 2.2.1 2.2.1-.1.7zm-7.8 3.7c-1.8 1.3-1.8 1.4-.1 1.5 1 0 1.5.5 1.2 1-.5.8-1.1.7-2.1-.1-1.1-.9-1.1-1.5-.3-2.5.6-.8 1.6-1.4 2.2-1.4.6 0 .2.7-.9 1.5zm7.1.5c-.3.5-1.2 1-1.8 1-.7 0-.6-.4.3-1 1.9-1.2 2.3-1.2 1.5 0z"/><path d="M121.5 66c.3.5.8 1 1.1 1 .2 0 .4-.5.4-1 0-.6-.5-1-1.1-1-.5 0-.7.4-.4 1zm-46.6 76.3c-.1.6-.1 1.5 0 1.9 0 .5-.4.8-1.1.8-.6 0-.8.3-.5.7.4.3.2 1.2-.4 2-.6.7-.8 1.3-.3 1.3.4 0-.1.7-1.2 1.6-1.8 1.4-1.8 1.4.6.3l2.5-1.1-2.5 2.5c-1.4 1.3-2.8 2.3-3.1 2.1-1-.6-.3 3.6.8 4.7.6.6.9 1.9.6 2.8-.4 1.3-.3 1.3.7-.1.8-1.3.8-2.3 0-3.7-1.4-2.6-1.3-2.9 1.1-4.1 1.5-.9 2.4-.8 3.5.1 1.9 1.6 1.8.4-.3-2.8-2-3.1-.6-2.6 3.5 1 1.2 1.1 2.2 1.6 2.2 1 0-1.3-3.3-4.3-4.8-4.3-.6 0-1.4-.4-1.7-1-.4-.6.1-.7 1.1-.3 1.3.5 1.5.3.8-.8-1.2-2-1.4-3.8-.3-4.5.5-.3.9.2.9 1 0 1.9 1.1 2.1 2.8.4.9-.9 1.2-.9 1.2 0 0 .7-.5 1.2-1.2 1.2-.6 0-.8.3-.4.7.4.5 1.3.8 1.9.8.7 0 1.2.7 1.2 1.5 0 .9-.7 1.4-1.9 1.2-1.8-.3-1.8-.2-.6 1.3 1.3 1.6 1.5 1.6 2.7-.2.8-1 1.7-1.7 2.1-1.5.3.2.8-.2 1-1 .3-1.1.2-1.1-.6 0-.7 1-1.3.5-2.3-2-.8-1.8-1.3-3.5-1.2-3.8.1-.3-1.4-.6-3.3-.7-2.1-.2-3.4.2-3.5 1z"/><path d="M77 146.6c.8 1 1.5 2 1.6 2.2.1.2.5-.1.8-.7.4-.5-.4-1.5-1.6-2.2-2.2-1.2-2.2-1.1-.8.7zm9.2 2.4c-1.6 2.6-1.5 3.5.1 2.1.8-.6 1.8-.7 2.2-.3.5.4.5-.1.2-1.1-.9-2.4 0-2.1 1.4.4.8 1.6.8 2 0 1.4-.7-.4-1-.1-.9.7.2.7-.3 1.2-.9 1-.7-.1-1.3.2-1.3.7 0 1.1 3 3.6 3 2.5 0-.5.5-.2 1 .6 1.1 1.8 3.2 2 4.3.5.4-.6 1-.5 1.6.3.4.8 1.2 1.4 1.7 1.5.5.1.8.5.6.9-.1.5.2.8.8.8 1.4 0 1.3-2.3-.1-3.7-.9-.9-.7-1.1.7-.9 1.1.2 1.8 1 1.8 1.9-.1 1 .5 1.4 1.7 1.2 1.1-.2 1.9.2 2 .8 0 .7.5.1 1-1.3l1.1-2.5 1.7 3.3c.9 1.8 2 3 2.4 2.6.4-.4.2-1.3-.4-2.1-.9-1-.8-1.3 0-1.3.7 0 .9-.5.6-1-.4-.6-1.1-.8-1.6-.5-.5.3-.7 0-.6-.7.2-.7.2-1 0-.5-.3.4-1 .4-1.6 0-2.8-1.7-8.5-2.2-9.7-.8-.8.9-4.8 1.3-5.7.5-.2-.2-.7-.3-1.2-.4-1.9-.2-2.4-1.6-1.1-3.1 1-1.2 1.6-1.3 2.8-.3 1 .8.9.3-.3-1.3-1.1-1.5-2.3-2.5-2.7-2.3-.4.2-.9 0-1.3-.6-.9-1.5-1.9-1.2-3.3 1zm21.3 7.9c-.9.8-3.6 1-3 .2.2-.4 1.1-.8 2-.8.8 0 1.3.3 1 .6zm33.4-5.2c-.9 1-1.4 1.1-2 .2-.4-.8-.9-.4-1.4 1-.3 1.1-1.1 2.1-1.8 2.1-.8 0-.8-.3.1-1.2 1.4-1.4 1.6-2.8.4-2.8-.4 0-1.2 1-1.7 2.2-.6 1.3-1.5 2.2-2.1 2.1-.6-.1-1.1.4-1.1 1.1 0 .8 1.2 1.3 3.3 1.2 1.7 0 3-.4 2.8-.8-.2-.3-.1-1.3.2-2.2.5-1.3.9-1.2 2.5.7 1.9 2.5 5.1 2.9 7.1.9.9-.9 1.5-.9 2.7.1 1.2 1 1.3.9.6-.3-.5-.8-1-2.1-1.1-2.8-.3-1.9-1.3-2.7-2.1-1.8-.4.4-.2 1.1.5 1.5.9.5.5 1.1-1.4 2-1.8.8-3 .8-3.9.1-.6-.5-1.4-.9-1.6-.7-.2.1.2-.4 1.1-1.1.8-.7 2-1 2.7-.8.7.3 1.3.2 1.3-.3 0-1.6-3.9-1.9-5.1-.4z"/><path d="M77.3 152.7c1.3 1.8-.1 3.7-1.8 2.3-1.8-1.5-4.8-.1-3.9 1.9 1.1 2.7 1.3 6.1.3 6.1-1.9 0-.8 1.6 1.2 1.7 1.2.1 1.9-.1 1.5-.4-.3-.3-.1-1.2.5-2 .9-.9.8-1.3 0-1.3-.6 0-1.1-.4-1.1-.9 0-.6.9-.8 2-.6 1.1.2 1.8 0 1.5-.5-.3-.6-.1-1.8.5-2.7 1-1.6 1.1-1.6.6-.1-.3 1.2-.1 1.5 1 1.1.7-.3 1.4-1 1.4-1.7s.3-.7.8-.1c1.3 1.8 3.5 1.7 2.8-.1-.5-1.4-.4-1.5.9-.4s1.3 1.5.3 2.3c-.9.6-.8.7.5.3 1-.3 1.6-.2 1.3.3-.3.5 0 1.4.8 2 1.1.9 1.5.9 2-.1.3-.7.3-.2 0 1.1-.4 1.6-.2 2.1.5 1.7.6-.4.9-.2.5.7-.2.7.1 1.4.9 1.4s1.4-1.1 1.4-2.9c0-1.6-.3-2.4-.7-1.8-.5.8-.9.6-1.4-.6-.3-.9-.9-1.4-1.3-1.1-.9.9-4.5-4.1-3.8-5.3.4-.6 1.1-.7 1.7-.4.7.4.8.2.4-.5-.6-.9-1.1-.9-2.1-.1-.9.8-1.5.8-2 0-.9-1.4-2.5-.3-1.9 1.4.7 1.8-2.7 1.6-4.6-.4-.8-.9-1.1-1-.7-.3zm-1.9 3.9c.3.8.2 1.2-.4.9-.6-.3-1 0-1 .7 0 1-.3.9-.9-.2-1-1.5-.6-3 .9-3 .4 0 1.1.7 1.4 1.6zM143 154c0 .5.5 1 1 1 .6 0 1-.5 1-1 0-.6-.4-1-1-1-.5 0-1 .4-1 1zm-30.5 1.9c-.3.5-.1 1.2.4 1.6.6.3.8 1.2.4 2-.3.8 0 1.5.7 1.5.6 0 .8-.5.5-1-.3-.6-.2-1 .4-1 .5 0 .9.9.8 1.9 0 1-.6 1.7-1.3 1.4-.7-.2-1.5.1-1.9.6-.3.6-1 .9-1.5.6-.5-.3-1.2 0-1.6.6-.4.8-.3.9.4.5.8-.4 1-.2.6.7-.4 1 .1 1.5 1.3 1.4 1-.1 1.7.4 1.6 1-.3 1.2.9 1.7 3 1.4.6-.1 1 1.3.9 3 0 .3.8 1.1 1.9 1.7 1.7 1.1 2 1 1.7-.4-.2-1 .4-1.8 1.6-2 1.4-.2 1.6 0 .7.9-1.7 1.7-1.3 2.7.7 2.1 1.4-.5 1.5-.4.2.6-1.2.9-1 1 1 .5 1.4-.3 2.1-.3 1.5.2-1.5 1.2-1.7 3.6-.3 3 .7-.2 1.2-1.1 1-1.8-.2-.8 0-1 .5-.6.4.5.8 1.4.8 2 0 .5.6 1.2 1.4 1.5.8.3 1.1 0 .7-.6-.3-.6-.1-1.4.5-1.8 1.3-.8 3.1 1.6 2.4 3.3-.7 2.1 4.7.7 6.5-1.7 1.2-1.5 1.9-1.9 2.4-1.1.4.6 1.2.9 1.7.5.6-.4.6-1.1-.2-2-.6-.7-1.5-1.2-1.9-.9-.5.3-1.1.2-1.4-.3-.6-1-5.7-.9-7.3.1-.7.5-1.8.5-2.5.1s-.8-.3-.4.4c1 1.6-.9 1.5-2.3-.1-.8-1-.7-1.7.2-2.7 1-1.2.9-1.2-.6-.1-.9.8-2.1 1.1-2.5.7-.7-.7-.8-1.1-1.1-3.7-.1-.7-1-.5-2.6.5-2.4 1.6-2.6 1.6-3.7-.9-.8-1.9-1.4-2.2-2-1.3-.6 1-.8.9-.8-.3 0-1.8 2.3-4.2 3.4-3.4.3.3.2-.1-.4-.7-1.3-1.6-1.3-2.9.1-2.6.6.2 1.4-.4 1.6-1.2.3-1.2.2-1.2-.5-.2s-1.1 1-2.2-.3c-.7-.8-.9-1.5-.5-1.5s.2-.7-.5-1.5c-1.4-1.7-2.6-1.9-3.5-.6zm3.3 8.8c-.5.7-1.4 1-1.9.7-1.6-1-.9-2.3 1-2.1 1.5.1 1.7.4.9 1.4zm22.3 12c.8.8.8 1.6 0 3-.6 1-1.1 1.3-1.1.5 0-.7-.4-1-1-.7-.6.3-.7-.1-.4-1 .4-.9.3-1.5-.2-1.4-1.7.3-2.5-.1-2-1 .8-1.2 3.3-.8 4.7.6z"/><path d="M136.6 177.3c.3 1 .9 1.5 1.2 1.2.3-.3 0-1.1-.7-1.8-1-.9-1.1-.8-.5.6zm-54.5-17.7c-1.4 3.2-1.5 2.9 1 3.1 1.6.2 1.8-.1.9-1.2-.7-.9-.8-1.5 0-2 1-.6 1.4.1 1.1 1.9-.1.5.5.6 1.4.2 1.1-.4 1.4-.2.9.6-.4.7-.3.8.4.4 1.7-1 1.6-1.2-1.7-3.5l-2.8-2-1.2 2.5zm-15.7-.8c.3.6.2 1.3-.3 1.6-1.3.8-.7 3.9.9 4.4.7.3 1 0 .6-.7-.4-.6-.5-1.1-.1-1.1.3 0 1.4 1.4 2.4 3.1 1.1 1.8 2.2 2.6 2.5 2 .4-.6.3-1.1-.2-1.1-1.2 0-3.4-4.9-2.7-6 .3-.5-.4-1.4-1.6-2-1.3-.7-1.9-.8-1.5-.2zM68 161c0 .5-.5 1-1.1 1-.5 0-.7-.5-.4-1 .3-.6.8-1 1.1-1 .2 0 .4.4.4 1z"/><path d="M79 159.4c0 1.2-.5 1.6-1.5 1.2-.8-.3-1.4-.2-1.4.2.1.4 0 1-.1 1.4-.1.5-.3 1.4-.4 2-.1.7-.9 1.2-1.9 1.2-1.3-.1-1.5.1-.8 1s.7 1.7-.2 2.6c-.9 1.1-.7 1.1 1.1-.1 1.3-.8 2.3-1.8 2.2-2.3-.1-.5.4-1.2 1.2-1.7.7-.5 1.3-1.3 1.3-1.9 0-.6.7-1.5 1.5-2 1.2-.7 1.2-1.2.2-2.2-.9-.9-1.2-.8-1.2.6zm15.9.9c0 .7-.2 2.5-.4 4.2-.3 2.4-.2 2.7.6 1.2.6-.9.7-2.3.4-3-.4-.6.1-.3.9.7.9 1.1 1.6 1.5 1.6 1 0-.6.7-1.1 1.5-1.1s1.5.5 1.5 1 .7.4 1.5-.3 1.2-1.7.8-2.4c-.3-.6.3-.3 1.5.7 1.1 1.1 1.8 2.5 1.5 3.3-.4 1 0 1.2 1.1.8.9-.4 1.5-.9 1.2-1.2-.3-.2-.1-1.2.4-2.1.5-1 .5-2.3-.1-3.2-.7-1.2-.9-1.2-1 .1-.1.8-.1 1.9 0 2.3.1.5-.9.1-2.1-.7-2-1.4-2.4-1.4-4.5-.1-2.2 1.5-2.7 1.1-2.5-1.5 0-.3-.8-.7-1.9-.7-1-.1-1.9.4-2 1z"/><path d="M79.6 162.8c.2.3-.1 1.1-.7 1.9-.6.7-.8 1.3-.3 1.3.4 0-.7 1.1-2.6 2.5-3.6 2.6-5.3 2.2-6.5-1.6-.5-1.6-1-1.8-2.1-.8-1 .8-1.4.8-1.4 0 0-.6-.8-1.1-1.7-1.1-1.4 0-1.5.2-.5.9 1.1.7 1.1.9-.2 1.4-.8.3-1.3 1.4-1.1 2.6.2 1.1-.3 2.2-1.1 2.5-.9.3-1.2 1-.9 1.6.3.5.1 1-.5 1s-1 .8-.8 1.7c.2 1-.2 1.7-.9 1.6-.8-.2-1 .4-.6 1.4.4 1.1.3 1.4-.5.9-.8-.4-1-.2-.6.7.3.8 0 1.8-.6 2.2-.8.5-.5 1.1.7 2.1 2.7 2 4.9 1.8 2.6-.4-1-.9-1.3-1.3-.6-.8.8.5 1.3.4 1.3-.2 0-.6-.5-1.4-1-1.7-.7-.4-.6-1.3.1-2.6.8-1.6 1.3-1.8 2.4-.9 1.1.9 1.4.7 1.3-1.2-.1-1.3-.6-2.9-1.1-3.6-.6-.8-.6-1.2.2-1.2.6 0 1.1.4 1.1 1 0 .5.5 1 1.1 1 .8 0 .8-.5-.1-1.5-1-1.2-1-1.5.1-1.5s1.1-.2-.1-1c-.8-.5-1.1-1-.6-1 .5 0 1.8.8 2.9 1.7 1.6 1.4 1.9 1.5 1.5.3-.2-.8-1.5-2-2.7-2.6-1.8-.9-1.9-1.3-.7-1.7.9-.4 1.6-.1 1.6.5s.6.5 1.7-.3c1-.8 1.4-.9 1-.2-.4.7 0 1.6 1 2.2 1 .6 1.2 1.1.6 1.1-.7 0-1.3.6-1.3 1.2.1 2.1 2.8 5 4 4.3.8-.5.5-1.2-.9-2.2-1.2-.8-1.9-1.9-1.6-2.4.4-.5 1.5-.3 2.8.6 2.7 1.9 3.4 1.9 3.4 0 0-1-.6-1.4-1.5-1-1.2.5-1.3.3-.2-1s1.5-1.3 2.3-.3c.6.9.7.8.3-.5-.3-1-.2-1.6.3-1.3.5.3 1.4-.1 2.1-.9 1-1.2 1-1.5-.1-1.5s-1.1-.2.1-1c1-.6 1.2-1.2.4-1.8-.6-.5-.9-.7-.8-.4z"/><path d="M82.4 163.8c.4.7.2 1.2-.5 1.2s-1 .3-.6.6c.3.4-.6 2.3-2.1 4.2-2.2 2.9-2.3 3.4-.9 2.9 1-.4 2.1-.7 2.3-.7.3 0 .2-.5-.2-1.2s-.3-.8.5-.4c.6.4.9 1.2.6 1.7-.4.5-.1.9.4.9 1.5 0 1.4-2.3-.1-3.9-.7-.8-.8-1.1-.3-.9.6.3 1.6 0 2.3-.8.8-.9.9-1.4.2-1.4-.6 0-.9-.4-.5-.9.3-.5 0-1.3-.6-1.7-.8-.4-.9-.3-.5.4z"/><path d="M85.2 165c.2.9-.3 2.4-1.1 3.3-.9 1.2-1 1.7-.2 1.7.7 0 1 .4.7.8-.3.5.1.9.9.9 1.8 0 1.9-.9.3-2.5-.7-.7-.9-1.3-.5-1.3.4-.1 1.2-.3 1.7-.4.6-.1 1.3-.3 1.7-.4.4 0-.2-.8-1.3-1.6-1.8-1.3-1.8-1.4.4-.8 2.4.6 4 2.3 2.2 2.3-.6 0-.8.5-.5 1 .5.8 1.1.8 1.9.1.7-.6 1.6-.8 2-.4.4.4.4 0 0-1-.3-.9-1-1.4-1.5-1.1-.5.3-1.2-.1-1.5-.9-.8-2.2-5.6-1.9-5.2.3z"/><path d="M103.2 164.3c-.6.7-2.4 1.2-3.9 1.1-1.5 0-3.3.6-4 1.5-.6.9-1.7 1.6-2.4 1.6s-1.4.6-1.6 1.2c-.3.7 0 1.3.7 1.3.6 0 .9-.4.6-.9-.3-.4.6-.7 2-.5 2 .2 2.4-.1 1.9-1.4-.3-.9-.3-1.3.1-.9s1.4.2 2.1-.5c1.1-.9 1.6-.9 2.3.1.5.9.9 1 1.4.2.4-.6 1.2-.9 1.7-.5.5.3.7.9.4 1.4-.3.5.3.7 1.4.5 1.5-.3 1.8 0 1.4 1.3-.3.9-.3 1.4.2 1 .4-.4 1.4-.3 2.2.3 1.7 1.4 1.7-.2.1-2-.7-.8-.8-1.1-.3-.8.6.3 1.7.2 2.5-.3.9-.6 0-.8-2.6-.7-3 .2-3.9-.2-3.9-1.5 0-2.4-1-3.1-2.3-1.5z"/><path d="M98.7 167.6c-.3.3-.3 1.2 0 2 .3.9-.1 1.2-1.5.9-1.1-.2-2.8.3-3.9 1.1-1 .9-1.1 1.2-.3.8 1.3-.7 1.3-.5.1.9-1.9 2.4.1 2.1 2.7-.3 1.2-1.2 2.2-1.7 2.2-1.2s.7.9 1.5.9c.9 0 1.4-.6 1.1-1.4-.3-.8-.1-1.1.4-.8.6.3 1 0 1-.7s.7-.2 1.6 1c.8 1.2 2 2 2.5 1.7.5-.4.9-.1.9.5s.4.9.9.5c.5-.3 1.2-.1 1.6.5.8 1.3 3.5 1.3 3.5-.1 0-.5-.4-.8-.9-.5-.5.3-1.4-.1-2.1-.9-.7-.8-1.6-1.2-2.1-1-.4.3-1.1-.1-1.6-.9-.4-.8-1.2-1.6-1.8-1.8-.5-.2-.9-.8-.7-1.3.2-.6-.2-.4-.9.2-.8.8-1.7.9-2.4.3-.7-.5-1.4-.7-1.8-.4z"/><path d="M88.1 170.2c1.3 1 2 1.8 1.4 1.7-.5-.1-1.2 0-1.5.1-1.7.6-8 1.8-12.2 2.2-.9.1-1.5.5-1.2.9.2.4-.2 1.2-1 1.8-1.4 1.2-4.9.4-4.1-.9.3-.4-.7-1.6-2.2-2.5-2.2-1.5-2.5-1.5-2-.2.3.9-.1 2.1-.9 2.8-1 .8-1.1 1.5-.4 2.4.8.9.6 1.4-.4 1.8-.9.4-1.8.1-2.2-.5-1.4-2.2-2.1 1.5-.8 4.1 1.2 2.3 1.2 2.8-.3 3.8-1.3 1-1.9 1-2.4.1-1.1-1.7-3.9-1.9-3.2-.2.4 1 0 1.2-1.3.7-1.6-.6-1.6-.5.2 1.4 1 1.1 2.3 1.8 2.8 1.5.4-.2.2-.8-.5-1.3-.9-.5-.3-.7 1.5-.5 1.6.2 3.5 1.1 4.3 2.1 1.1 1.6 1.3 1.7 1.3.3 0-.9-.5-2-1-2.3-.6-.4-.8-1.1-.4-1.6.3-.5 1-.7 1.5-.3.5.3 1.6 0 2.4-.6 1.7-1.4 2-4 .5-4-.5 0-.9.6-.7 1.2.1.7-.4 1.3-1.2 1.3-.8 0-1.6-.6-1.8-1.3-.3-.6.3-1.2 1.4-1.2 1.5 0 1.6-.2.3-1.1-1.2-.8-1-.9.9-.4 1.6.5 2.1.4 1.7-.4-.4-.6-.2-.9.7-.5.8.3 1.4-.2 1.4-1.1 0-1-.6-1.3-1.8-1-.9.3-2.1 0-2.5-.6-.5-.9-.2-1 .9-.6 1 .4 1.6.2 1.4-.5-.1-.6.5-1.3 1.3-1.5 1.2-.4 1.3-.3.1.5-1.1.8-.9 1.1.9 1.7 1.6.5 1.9 1 1 1.5-.9.5-.9.9-.1 1.4.6.4 2.2-.5 3.6-2 1.9-2.1 2.4-2.3 1.9-.8-.4 1-.4 1.6.1 1.2.4-.4 1.4-.3 2.2.3 1.6 1.4 1.8-.2.1-1.9s-.3-2.6 2-1.3c1.5.8 2.1.7 2.6-.4.3-.8 1.4-1.2 2.6-1 1.1.2 2-.1 2-.6 0-.6.5-.7 1.2-.3.7.5.8.3.3-.6-.5-.9-.4-1.1.4-.6.6.4.9 1.2.6 1.7-.4.5-.1.9.5.9s.9.4.6.8c-1 1.6 1.2 3.5 3 2.7 1.1-.5 2.2-.7 2.7-.7.4.1.7-.2.7-.7 0-.5.3-1.8.6-2.8.5-1.5.4-1.5-.5-.3-.6.8-1.1 1-1.1.5 0-.6-.8-.1-1.8 1-.9 1.1-1.6 1.8-1.5 1.6.2-.2-.2-1-.8-1.8-.6-.7-.9-1.3-.5-1.3s0-1.3-.8-2.8c-.8-1.6-2.2-2.9-3.1-2.9-1.4 0-1.2.4.6 1.9zm23.7-.5c1 .4 1 .8 0 2.1-.8 1-.9 1.3-.1.9 2-1.2 2.7 1.5.8 3-1.4 1-2.1 1-2.6.1-1.1-1.8-3.9-1.9-3.2-.1.5 1.2.7 1.2 1.4.1.5-.7.9-.8.9-.3 0 .6-.5 1.6-1.1 2.2-.9.9-.7 1.2 1 1 1.1-.1 2.1-.4 2.1-.8s1-.7 2.3-.7c4.4-.2 5.7-.8 5.7-2.7 0-.2-1.2 0-2.7.5-2.7 1-2.7.9-.8-.5 1.1-.9 1.9-1.9 1.7-2.3-.4-1-4.5-3.1-5.7-3.1-.5 0-.4.3.3.6z"/><path d="M102.4 171.8c.6 1.1 0 1.4-2 1.1-1.2-.1-2.4 2.6-1.8 4.3.4 1.3 0 1.6-1.6 1.3-1.2-.2-2.3.2-2.6.9-.8 2.2-3.2 1.4-4.4-1.4-.9-2.2-1.8-2.7-4-2.6-1.8 0-3.1.7-3.3 1.8-.3 1.1 0 1.5.9 1.1.8-.3 1.4-.8 1.4-1.2 0-.4.7-.8 1.4-.8 1.1 0 1.2.5.5 1.8-.5 1-1.5 1.6-2.2 1.3-.8-.3-1.4.2-1.4 1.1 0 1.8 0 1.8 3.1.4 1.4-.7 2.3-1.6 1.9-2.2-.3-.6-.1-.7.5-.3.6.3.9 1.4.7 2.4-.3 2 2.1 4.7 3 3.2.3-.6.1-1-.5-1s-.8-.5-.4-1.1c.3-.6.9-.7 1.3-.3.3.5 1.2 1 1.9 1.2 1 .2 1.2-.4.7-2-.5-1.8-.4-2 .4-.8 1 1.3 1.1 1.3 1.1 0 0-.9.3-1.1.8-.5 1.2 1.7 3.5 1.7 2.8 0-.4-1-.2-1.4.5-.9.7.4 1 .1.7-.7-.3-.8-1.1-1.3-1.7-1.1-1.9.4-.3-1.6 2.2-2.9 1.2-.7 1.9-.8 1.5-.4-.9.9.9 4.5 2.3 4.5 1.1 0-1.6-5.6-3.2-6.6-.8-.4-.9-.3-.5.4z"/><path d="M101.9 176.4c1.4 1.7-.3 6.1-2 5.1-1.4-1-1.1 1.1.5 2.4.9.7 1.7.8 2 .2.3-.5 0-1.2-.6-1.4-.8-.4-.4-.8 1-1.3 1.8-.5 2-.9 1-1.5-.9-.6-.9-.9-.1-.9 1.9 0 2.6 2 .9 2.6-.9.3-1.3 1-1 1.6.6 1 3.4-.8 3.4-2.3 0-.4-1.1-2-2.5-3.4-2.8-2.7-4.5-3.5-2.6-1.1zm18.2.3c-.7.8-1 1.7-.7 2 .3.4.6.3.6-.1 0-.3 1.4.1 3.1 1 2.3 1.1 2.8 1.9 2 2.7-2 2-1.2 3.1.9 1.2 1.2-1 3-1.9 4-2 2.8-.2 3.6-1.3 2-2.8-.9-.8-1.1-.8-.6 0 1 1.8-1.3 2.6-3.1 1.1-1.2-.9-1.5-.9-.9-.1 1.1 1.9-.6 1.5-3.4-.7-2-1.6-2.1-1.9-.5-1.4 2.1.7 2 .6-.5-1.3-1.1-.8-1.8-.7-2.9.4zm-41.2.7c1.5 1.8.5 4.1-1.2 2.8-1.5-1.1-2.7-.9-5.2.5-1.9 1.2-2 1.2-.1 3 1.8 1.7 1.8 1.7 1.2-.4-.4-1.2-.2-2.4.4-2.8.5-.3 1-.1 1 .5s.4.9.9.5c.5-.3 1.3 0 1.6.6.4.5 1.4.8 2.2.4 1.3-.4 1.4-.3.3 1-1 1.2-1 1.5.4 1.5 1 0 1.4-.5 1.1-1-.3-.6-.2-1 .4-1 .5 0 1.2.6 1.4 1.2.4 1 .8.9 1.6-.2.5-.8 1.3-1.1 1.8-.7.4.5.1 1.2-.7 1.7-.8.6-1 1-.5 1 .6 0 1.7-.5 2.5-1 1.2-.8 1.3-1.1.1-1.9-.7-.5-.9-1.1-.5-1.3.5-.3.2-.3-.6 0-2.7.9-8.1.2-7.4-.9.2-.5 1.2-.5 2-.2 1.4.5 1.4.3.3-1.5-.8-1.2-2-2.4-2.8-2.7-1.1-.4-1.1-.3-.2.9z"/><path d="M116.7 177.6c-.4.4-1.7.8-2.9.9-1.2.1-2.3.6-2.5 1.2-.4 1.2 1.5 1.2 3.4 0 .9-.6 1.1-.3.6.9-.4 1.1-.3 1.5.5 1 .6-.3 1.3-.2 1.7.4.3.5 1.1 1 1.7 1 .6 0 .3-1-.8-2.2-1.9-2.2-1.9-2.3.1-.8 2.5 1.9 3.5 3.2 2.9 4.1-.2.4.3 1 1.2 1.3.9.3 1.2.2.9-.5-.4-.5-.1-1.6.5-2.4 1.2-1.5.4-2-2.2-1.6-.5 0-.8-.4-.8-1 0-.5-.4-.8-.9-.4-.6.3-1.4-.2-1.8-1-.5-.9-1.2-1.2-1.6-.9zm-8.2 2.4c-.3.5-.3 1 .1 1s-.1.6-1.1 1.4c-2.3 1.7-2.8 4.3-.8 5 .8.3 1.1.1.8-.4-.3-.6 0-1 .7-1 1 0 .9-.3-.2-1-.8-.5-1.1-1.2-.7-1.7.5-.4 1.2-.1 1.7.7.6.8 1 1.3 1.1 1 0-.3.2-1.3.4-2.3.2-.9-.1-1.7-.6-1.7-.6 0-.7-.5-.4-1 .3-.6.4-1 .1-1-.3 0-.8.4-1.1 1zM69 181.8c0 .7-.4 1-1 .7-.6-.3-.7.1-.3 1 .5 1.3.7 1.4 1.4.3.5-.7.9-.8.9-.2 0 1.6-5.9 5.6-7.3 4.9-.6-.4-.4 0 .5.8 1.5 1.2 1.6 1.6.4 3.2-1.3 1.8-1.4 1.8-2.5-.4-1.2-2.2-1.3-2.2-3.9-.5-1.8 1.2-2.7 1.3-3 .6-.7-2.1-2.1-1.3-1.7.9.3 1.5 0 1.9-1.1 1.5-.8-.3-1.2-.2-.9.3.3.5.1 1.2-.4 1.6-1.2.7-1 4.5.2 4.5.4 0 .5.5.1 1.2-.5.7-.3.8.6.3 1-.6 1.2-.3.8 1.3-.4 1.2-.2 2 .2 1.7.5-.3 1.1.4 1.5 1.5.3 1.1 1.1 2 1.6 2s.2-1.2-.7-2.8l-1.6-2.7 2.1 2.5c2.1 2.5 2.5 3.6 2.1 5.5-.1.5.2.7.6.2 1.5-1.4 1.4-4.5-.2-5.1-.8-.3-1.2-1-.9-1.6.3-.5.2-1-.2-1-.5 0-1.8-.7-2.9-1.6-1-.8-1.3-1.2-.6-.9 1.1.6 1.2.3.3-1.4-1.4-2.5-2.2-2.8-1.5-.4.5 1.7.5 1.7-.6 0-1.6-2.4-.2-4.3 1.6-2 1.2 1.6 1.3 1.5.9-1.5-.2-1.8 0-3 .5-2.7.5.3.6 1.3.3 2.3-.6 1.4-.4 1.5.8.5 1.2-.9 1.8-1 2.7-.1.8.8 1.1.5.9-1.1-.1-1.5-.6-2-1.7-1.6-1.1.5-1.2.3-.4-.5 1.2-1.2 4.4-.3 4.4 1.2 0 .5-.5.6-1.2.2-.7-.4-.8-.3-.4.5.4.6 1.2.9 1.7.6.5-.4.9 0 .9.7.1.7.7.2 1.4-1.1 1-1.8 1.5-2 2-1 .3.8.3.4 0-.9s-.1-2.2.6-2.2c.6 0 .9-.4.6-.8-.3-.5.1-.9.9-.9s1.5.4 1.5.8c0 .7 2.6.6 3.4-.2.2-.2-.2-1-1-1.7s-1.4-.9-1.4-.4-.7.9-1.5.9c-2.2 0-1.8-1.4.5-2 1.1-.3 2.7.1 3.5 1 .9.9 1.5 1 1.5.3 0-.6.4-.9.9-.5.5.3 1.3 0 1.7-.6.4-.8.3-.9-.4-.5s-1.2.2-1.2-.4c0-.7.6-1 1.3-.7.6.2 1 1.3.9 2.3-.3 1.5-.1 1.7.9.6.7-.6 1.8-1.2 2.4-1.2.5 0 .2.5-.7 1.1-1 .5-1.8 1.5-1.8 2.1 0 .9.3.9 1.1.1.6-.6 1.8-.9 2.7-.6 1 .4 1.3.2.8-.5-.5-.8-.1-1 1-.5 1.3.5 1.5.3.9-.8-.8-1.2-.6-1.2.8 0 1.1.9 1.5 2.1 1.2 3.5-.5 1.5-.4 1.7.3.8.5-.8 1.3-1.3 1.8-1.2.5.1 1-.4 1.3-1.1.2-.7-.1-.9-.9-.4s-1.1.4-.6-.3c.3-.5.1-1.2-.6-1.4-.8-.3-.6-.7.5-1.1 1-.4 1.6-.2 1.4.5-.1.6.4 1.3 1.1 1.5.7.3 1.1.1 1-.4-.2-.4.2-.8.7-.8.6 0 .9.3.8.7-.4 1.1 1.5 1 2.2-.1.3-.5.1-1.2-.4-1.6-.6-.3-.7-1.3-.4-2.3.6-1.6.6-1.6-1.1.1-1 .9-2.2 1.5-2.7 1.2-.5-.3-1.8-.1-2.9.5-1.4.8-2.6.8-4.1-.1-1.5-.8-1.9-.8-1.5 0 .4.6.4 1.1-.1 1.1-1.4-.1-5.2-2.5-5.5-3.5-.2-.5-.8-1-1.5-1.1-.6-.1-.9.4-.7 1.1.6 1.6-.8 2.6-2.2 1.7-.6-.4-1.6-1.6-2.2-2.7-.6-1.1-1.2-1.4-1.2-.7z"/><path d="M96.2 183.5c-.7 1.6-.8 2.6-.1 3.1 1.3.8-1 3.6-2.5 3.1-.6-.2-2.3.6-3.9 1.9-1.6 1.3-3.4 2.1-4.3 1.7-1.4-.5-1.4-.3-.3 1.5 1.1 1.7 1.4 1.8 2.7.6.7-.8 1.8-1.2 2.3-.9.9.6 1.3-.8 1-3-.1-.6.8.1 1.9 1.5 2.2 2.8 2.4 3.6 1 4.5-.5.3-1 1.4-1 2.3.1 1.5.2 1.5 1.1-.1.6-.9 1.4-1.5 2-1.2 1.3.9.5-3.3-.9-4.7-.7-.7-1.2-1.7-1.2-2.2 0-.6.5-.4 1.1.4.9 1.3 1 1.2.5-.3-.4-1.2-.2-1.6.6-1.1.7.5.8.2.3-.7-.6-1.1-.5-1.2.6-.2 1.8 1.8 3.4 1.6 1.9-.2-.7-.8-.9-1.5-.4-1.5s.3-.4-.4-.9c-1.1-.7-1-.9.3-1.4 1-.5 1.4-.3.9.5-.5.7-.3.8.5.4.9-.6.8-1.3-.6-2.9-1-1.2-1.8-2.3-1.9-2.5 0-.1-.6.9-1.2 2.3zm.9 1.8c-1 .9-1.1.8-.5-.6.3-1 .9-1.5 1.2-1.2.3.3 0 1.1-.7 1.8zm14.6-3.7c-.8.8 1.1 3.4 2.5 3.4.5 0 .7-.4.4-.8-.3-.5.1-.9.9-.9 1.1 0 1.2.4.4 1.3-.6.8-.6 1.4 0 1.8.5.3 1.2 0 1.4-.6.4-.8.8-.4 1.2.9.4 1.3 1.1 2 1.6 1.7.5-.3.6-1 .3-1.6-.4-.7-.2-.8.5-.4.6.4.9 1.2.6 1.7-.9 1.3.7 1.1 3-.4 2.2-1.5 3.4-1.5 5.3-.4.8.6 1.1.4 1-.4-.2-.7.4-1.3 1.2-1.4.8 0 1.5-.7 1.5-1.5 0-2.4-5.2-1.9-7.7.7-1.6 1.7-2.5 2-4 1.2-1.1-.6-1.6-1.5-1.1-2.2.5-.8.2-.8-.9.1-1.3 1-1.7 1-2.1-.2-.3-.8-1.4-1.3-2.4-1.2-1 .2-2.1-.1-2.4-.6-.3-.4-.8-.5-1.2-.2zm18.7 3.3c-.9.9-3.4.9-3.4.1 0-.5.9-.8 2-.7 1 .1 1.7.3 1.4.6z"/><path d="M101.2 186.5c-1.3 1.3-1.8 2.6-1.3 3 .6.3.8 1.2.4 2.1-.4 1-.9 1.2-1.8.4-.9-.8-1.4-.6-1.8.4-.4.9-.2 1.8.2 2 1.3.9.6 5.1-.8 4.8-.7-.1-1 .2-.7.7.3.5-.1 1.1-.9 1.5-.8.3-1.9-.3-2.5-1.4-1.3-2.3-1.3-3.3-.1-2.5 1.3.7 2.4-1.2 1.5-2.6-.4-.8-1.3-.4-2.6 1.2-1.5 1.9-1.7 2-1.1.4.6-1.7.5-1.8-.9-.5-1.2 1.2-1.3 1.8-.4 2.9.6.8 1.1 1.7 1.1 2 0 .3.6.5 1.2.5.7-.1 1 .3.6.9-.3.6-.1.7.5.3.8-.5 1-.1.5 1.1-.6 1.7-.5 1.7 1.4 0 1.1-.9 2.3-1.4 2.8-1 .4.5.5.2.1-.4-.5-.9-.2-1.1 1.1-.7 1.4.4 1.5.3.4-.4-1-.8-.9-1.2.7-2.3 2.6-1.8 2.5-3.1-.1-4.7-2-1.1-2.1-1.2-.2-1 1.1.2 2.4.7 2.8 1.3.5.5.5 0 .2-1.3-.4-1.2-.2-2.2.4-2.2.5 0 .8-.9.6-2-.2-1.1.3-2.4 1.2-2.8.9-.5 1.2-1.2.7-1.5-.5-.3-2 .5-3.2 1.8z"/><path d="M110.2 185.2c-.7.7-1.2 1.8-1.2 2.4 0 .7-.9 1.2-2 1.1-1.1-.1-2-.5-2-.9s-.4-.8-.8-.8c-.5 0-.9.7-.9 1.5s.4 1.2.9.9c.4-.3.8-.1.8.5 0 .5.6.8 1.3.7 2-.3 4.9-2.2 4.7-3.2-.1-.5.3-.9 1-1.1.6-.1.7 0 0 .4-1.2.6-.4 2.3 1.1 2.3.6 0 .7-.5.4-1-.3-.6-.1-1 .5-1 .7 0 .9.7.6 1.6-.3.8-.2 1.3.3.9 1.2-.7 4.1.5 4.1 1.7 0 .5-.4.6-1 .3-.5-.3-1-.2-1 .2 0 .5.9 1.4 2 2 1.6 1.1 1.8 1 1.3-.4-.4-1.1-.3-1.4.5-.9.7.4 1.2.2 1.2-.4 0-.6.5-.8 1.2-.4s.8.3.4-.4-.2-1.3.3-1.3c.6-.1 1.6-.3 2.1-.4.6-.1 1.6-.3 2.3-.4.9-.1.8-.4-.2-1-.9-.6-2.2-.4-3.5.4-2.5 1.7-5.4 1.4-6.7-.6-.5-.8-.9-1-.9-.6 0 .5-1.3-.1-2.8-1.2-2.2-1.5-3.2-1.7-4-.9zM73 190.5c-1.2 1.5-.6 3.5 1.1 3.5.6 0 .7-.5.4-1-.3-.6-.3-1.5.1-2.2.5-.7 1.2-.5 2.2.8 1.4 1.8 1.4 1.8.8.1-.3-1-.6-2.1-.6-2.3 0-1-2.9-.3-4 1.1z"/><path d="M83.7 190.1c-.9.5-2.1.7-2.7.4-.5-.3-1.4.4-2.1 1.7-1.1 2-1.3 2-2.4.5-1.1-1.6-1.2-1.5-1.2.7 0 2.7 1.6 2.8 4.1.3 1-.9 2.3-1.7 2.9-1.7.8 0 .8.3.2.8-.6.4-1.1 1.2-1 1.9 0 1.6 1.5 3 1.5 1.4 0-.7.5-.9 1.3-.5.9.5.9.4 0-.6s-.8-1.8.4-3.6c1.7-2.7 1.6-2.8-1-1.3zm25.4.8c-1.2 1.2-2.1 1.7-2.1 1.2 0-.4-.9-.8-2-.7-1.1 0-2 .4-2 .8v1.9c0 .8.4.8 1.3.1.7-.6 2.6-.9 4.2-.6 2.6.5 2.7.3 1.5-1.3-1.2-1.5-1.2-1.6 0-.6.8.7 1.8 1.3 2.3 1.3.4 0 .5-.6.1-1.3-.5-.8-.2-.7.9.2 1.1.9 1.5 2.1 1.1 3.3-.5 1.8-.3 1.8 1.6.8 1.7-.9 1.9-1.4 1-2.5-.7-.8-.8-2-.4-2.6.5-.9.2-1-1.1-.6-.9.4-2.3.2-3.1-.3-.9-.9-1.8-.6-3.3.9z"/><path d="M66.9 191.2c-.6 2.1-.5 5.7.3 7.1.9 1.7 2.8 1.5 2.8-.4 0-.6-.4-.7-1-.4-.6.4-.7-.1-.3-1.1.5-1.3.3-1.5-.8-.9-.8.4-.7 0 .3-1.1 1.4-1.4 2.1-1.5 3-.6.9.9.9 1.2 0 1.2-.7 0-1.2.5-1.2 1.1 0 .8.6.7 1.8-.2 1.4-1.1 1.5-1.1.5.1-1.7 1.9-1.6 2.7.2 2.7.8 0 1.5-.5 1.5-1.1 0-.5.6-.2 1.3.9 1.3 1.7 1.4 1.7 2.9-.4 1-1.4 1.8-1.8 2.3-1.2.3.6.1 1.1-.5 1.1s-.8.5-.4 1.1c.4.7.9.8 1.7 0 .7-.7.7-1.4-.1-2.4-.7-.8-.8-1.8-.4-2.3.4-.4-.1-.2-1.2.6-2.8 2.2-4.4 2-6.9-.8-1.8-2.2-5.5-4.1-5.8-3zm46.1 2.7c0 .7-.4.9-1 .6-.6-.4-.9.5-.8 1.9.1 1.5.5 2.6.9 2.6.8 0 1.9-5.3 1.3-5.9-.2-.2-.4.1-.4.8zm-8.6 1.3c-.3.4-.9.6-1.4.3-.5-.3-1.1-.1-1.4.3-.3.5.6 1.4 2 2.1 2.4 1 2.5 1 2-1.1-.3-1.3-.3-1.7 0-1 .5 1 .9 1 2.2 0 1.5-1.2 1.6-1.1.4.4-.8.9-1 2.3-.6 2.9.4.8.3.9-.5.5-.7-.5-1-.2-.9.6.2.8-.6 1.2-2.3 1.1-1.6-.1-2.6.3-2.6 1.2 0 .8.8 1.1 2.1.8 1.2-.2 2.6-.5 3.3-.5.7-.1 1-.4.8-.8-.2-.3.5-1.4 1.6-2.3 1.4-1.3 1.7-2.2 1-3.4-.9-1.8-4.8-2.5-5.7-1.1z"/><path d="M63.8 196.2c-.6 1.4-4.5 1.7-6.5.5-1.8-1.1-2.3.5-.5 1.9 1.2.9 1.9.9 2.4.1s1-.7 2.1.1c.7.7 1.7.9 2.1.5.4-.4.4.1 0 1-.3 1-.3 1.7.2 1.6.5-.1 1.7.1 2.8.6 1.2.5 2.1.3 2.7-.6.6-1 .9-1 .9-.2 0 .7.7 1 1.5.7.8-.4 1.3-.9 1-1.3-.2-.4.3-.8 1.1-.8 1 0 1.1.4.4 1.1-1.6 1.6-1.2 3 .5 1.6.8-.7 1.5-.9 1.5-.4s.5.2 1-.6c.6-1 1-1.1 1-.3 0 .7 1.3 1.9 3 2.8 3.6 1.9 3.7 1.9 3.7 0 0-.9-.6-1.4-1.3-1.1-1.8.7-2.9-1.3-1.5-2.7.8-.8 1.1-.8 1.1.1 0 .7.5 1.2 1 1.2.6 0 1-.7 1-1.6 0-.9-.5-1.2-1.2-.8-.7.4-.8.3-.4-.4 1-1.6 1.4-1.5 2.6.9.9 1.5.8 2.4-.1 3.5-.7.9-.8 1.4-.1 1.4.6 0 1.4-.5 1.7-1 .8-1.3 2.2-.5 3.6 2.2.8 1.5.8 1.9 0 1.4-.6-.4-1.1-.2-1.1.3 0 .6.9 1.1 2 1.1 1 0 2.4.8 3 1.7 1 1.6 1 1.6.8-.2-.2-1.4.2-1.9 1.5-1.7 1.2.2 1.7-.4 1.7-1.8 0-1.2-.5-1.8-1-1.5-.6.4-.8 1-.5 1.5.3.5-.4.7-1.5.5-1.3-.3-1.8 0-1.4.7.4.7.3.8-.4.4-.6-.4-.8-1.4-.5-2.2.4-1.1.8-1.2 1.3-.4.5.8 1.1.6 2-.5 1.3-1.6 1.5-1.5 2.7.1 1.2 1.6 1.3 1.5 1.1-.9-.2-2-.6-2.6-1.8-2.1-.8.3-2 .7-2.6.8-.7.1-1.8.7-2.6 1.3-1 .9-1.9.6-3.8-1.4-1.4-1.4-2.5-3-2.5-3.6 0-.5-.8-1.5-1.7-2.1-1.4-.9-2.1-.6-3.4 1.2-1.2 1.7-1.9 2-2.9 1.2s-1.5-.8-2 0c-.4.6-1.2.7-1.8.2-1.4-1-4.7-1-6.4.1-.6.4-1.4.3-1.8-.3-.4-.6-1.1-.7-1.7-.4-.7.5-.9.2-.6-.8.4-.8.3-2-.2-2.7-.6-1-.8-1-1.2.1zm37 2.5c-1 .3-1.8.9-1.8 1.4 0 1.3 1.4 1.1 2.8-.3.7-.7 1.2-.8 1.2-.2 0 .6.7 1.1 1.5 1.1s1.5-.2 1.5-.3c0-.9-3.7-2-5.2-1.7z"/><path d="M54 200.1c0 .6.7.8 1.5.5.9-.3 1.8.1 2.1.9.5 1.1 1.1 1.2 2.5.4 1.1-.5 1.7-1.4 1.3-2-.4-.7-1-.6-1.9.1-.9.8-1.5.8-2 0-.8-1.3-3.5-1.3-3.5.1z"/><path d="M55.6 201.8c-.3.5.1 1.3 1 1.6.8.3 1.2 1.1.8 1.7-.5.8-.1.8 1.3 0 1.1-.6 2.3-.7 2.7-.4.3.3.6 0 .7-.8 0-.8.3-.6.8.5.7 1.8 4.1 3.2 4.1 1.7 0-.4.7-.8 1.5-.8s1.1.5.8 1c-.3.5 0 .7.8.5.8-.3 1.3-1.1 1.1-1.7-.1-.7.2-1 .8-.6.6.3.8 1.1.5 1.6-.4.5.3.8 1.5.6 1.2-.2 2.5-.9 3-1.6 1-1.8 2.2.2 1.4 2.4-.6 1.5-.4 1.6 1.7.5 1.7-1 2.4-1 2.7-.1.2.6 1 1.1 1.8 1.1.9 0 1.3-.4 1-.9-.3-.5.1-1.2 1-1.5.9-.4 1.3-.2.8.5-.4.6 0 1.6.7 2.1 1.1.8 1 .8-.4.4-1.2-.4-1.7-.2-1.4.6.2.7 1.1 1.2 2 1.2.9-.1 1.5.2 1.2.6-.3.5-.1 1.2.5 1.5.6.4.9.1.8-.7-.2-.7.3-1.2 1-1.1.6.2 1.2-.2 1.2-.8 0-.6-.6-.9-1.4-.6-1.5.6-3-1.9-2-3.4 1.2-2-.8-2.8-3.1-1.3-2.1 1.4-2.6 1.4-5.7-.2-4.1-2.2-5.6-2.5-6.4-1.3-.3.5-1.1.6-1.7.2-1.8-1.1-3.7-1.2-3.7-.2 0 1.1-2.3.7-3.2-.5-.9-1.4-3.9-1.6-5.9-.5-1.3.7-2 .5-2.7-.7-.6-1-1.2-1.3-1.6-.6z"/><path d="M59.9 205c0 .3-.2 2.2-.4 4.2-.2 3 0 3.6 1.4 3 1.4-.5 1.5-.4.1 1.4-1.4 1.8-1.4 1.8.3.5 1.1-.9 1.7-1 1.7-.2 0 .6.4 1.1.8 1.1.5 0 .9-.7.9-1.5s-.5-1.1-1-.8c-.6.3-.7.2-.4-.3.3-.6.1-1.6-.5-2.4-.8-1.2-.9-1.2-.4.3.3 1.1.2 1.6-.5 1.2-.5-.4-.7-1.4-.5-2.3.3-1 .1-2.4-.4-3.2-.5-.8-1-1.3-1.1-1z"/><path d="M62.6 207.4c.3.9 1 1.6 1.6 1.6.5 0 .7.4.3.9-.3.5-.1 1.2.4 1.5 1 .7.9 2.5-.1 4.1-.4.6.2 1.1 1.3 1.2 1 .1 1.9-.3 1.9-.8 0-.6-.5-.7-1.1-.3-.8.5-.8.1 0-1.4.9-1.7.8-2.3-.6-3.1-1-.6-1.3-1.1-.8-1.1.6-.1 1.8-.3 2.8-.5.9-.2 1.7.1 1.7.6 0 .6.5.7 1.1.3.8-.5.8-.1 0 1.4-1.5 2.8-1.4 3.2.4 2.6.8-.4 1.2-1.1.9-1.6-.4-.6.2-.5 1.4.1 2.7 1.4 2.9 1.4 2.9-.4 0-.9-.6-1.4-1.3-1.1-1.8.7-2.9-1.3-1.5-2.7.8-.8 1.1-.8 1.1.2 0 .7.4 1 .9.7.5-.4 1.1 0 1.4.6.2.7.4.1.3-1.4-.1-2-.4-2.4-1.3-1.6-.7.6-1.3.7-1.3.3 0-.4-.6-.2-1.4.4-1.1.9-1.5.9-1.9-.1-.4-1-.6-1-.6.1-.1 1-.4 1.1-1.4.3-.7-.6-2.2-.9-3.2-.8-1.1.2-2.6-.1-3.3-.7-.9-.7-1.1-.6-.6.7z"/><path d="M80 209c-.8.5-1.1 1.2-.7 1.7.5.4 1.2.2 1.6-.6.7-1 .9-1 1.4.2.3.8 0 2-.6 2.7-.9 1-.8 1.2.5.7 1-.3 2-.2 2.3.4.4.5.3.9-.2.8-2-.3-3.3.2-3 1.2.1.6-.5 1.4-1.3 1.6-1.2.3-1.2.2-.2-.5 3-2.1-3-3.6-8.8-2.1-1 .3-1.4-.3-1.3-1.8.1-1.1-.4-2.4-1.3-2.7-1-.4-1.3-.2-.7.6.4.7.8 2.1.8 3.1.1 1 .7 2.2 1.4 2.7.7.4 1.2 1.1 1.2 1.6-.1 1.3 10.2.9 10.7-.4.2-.6.9-1 1.5-.8.7.1.9.1.5-.1-1.5-.9-.8-2.2 1-1.8 1.9.3 5.1-1 4.2-1.8-5.1-4.1-7.7-5.5-9-4.7zm6.8 5.6c-.4.3-1.2-.5-1.8-1.8-1.2-2.2-1.2-2.2.6-.6 1 1 1.5 2 1.2 2.4zM75 215.8c0 1-2.1 3.2-3 3.2-.4 0-.7-.6-.7-1.4 0-.8.6-1.2 1.5-.8 1 .3 1.3.1.8-.6-.4-.7-.2-1.2.3-1.2.6 0 1.1.4 1.1.8zm3.7 1.1c-.1 1.2-.8 1.9-2 1.8-1.6-.1-1.6-.3-.3-1.3.9-.6 1.3-1.4.9-1.7-.3-.4-.1-.7.5-.7s1 .9.9 1.9z"/><path d="M77.5 212c-.2.3.6 1.2 1.8 1.9 1.2.8 1.9 1 1.5.6-.4-.5-.4-1.3.2-1.9.6-.8.3-1.2-1.1-1.2-1.1 0-2.2.3-2.4.6z"/></svg>